<?xml version="1.0" encoding="UTF-8"?>
<svg width="14px" height="14px" viewBox="0 0 14 14" version="1.1" xmlns="http://www.w3.org/2000/svg" xmlns:xlink="http://www.w3.org/1999/xlink">
    <!-- Generator: Sketch 49.3 (51167) - http://www.bohemiancoding.com/sketch -->
    <title>bath</title>
    <desc>Created with Sketch.</desc>
    <defs></defs>
    <g id="Page-1" stroke="none" stroke-width="1" fill="none" fill-rule="evenodd">
        <g id="Mobile-|-Expanded" transform="translate(-162.000000, -2261.000000)" fill="#666666" fill-rule="nonzero">
            <g id="Property-Card-3" transform="translate(22.000000, 2020.000000)">
                <g id="Amenities-Copy-2" transform="translate(56.000000, 237.000000)">
                    <g id="Group" transform="translate(69.000000, 0.000000)">
                        <g id="bath" transform="translate(15.000000, 4.000000)">
                            <path d="M0,5.82758621 L0,9.44827586 C0.00127827157,10.9525635 1.11484377,12.2116407 2.57704561,12.362069 L2.57704561,12.4482759 C2.57704561,13.3052694 3.25574127,14 4.09295479,14 L9.75234907,14 C10.5895626,14 11.2682583,13.3052694 11.2682583,12.4482759 L11.2682583,12.362069 C12.7304601,12.2116407 13.8440256,10.9525635 13.8453039,9.44827586 L13.8453039,5.82758621 L12.0093694,5.82758621 L12.0093694,2.60344828 C12.0093694,1.1656035 10.8706689,0 9.46601067,0 C8.06135243,0 6.92265193,1.1656035 6.92265193,2.60344828 L6.92265193,3.27586207 L7.93325806,3.27586207 L7.93325806,2.60344828 C7.93325806,1.73693255 8.61949478,1.03448276 9.46601067,1.03448276 C10.3125266,1.03448276 10.9987633,1.73693255 10.9987633,2.60344828 L10.9987633,5.82758621 L0,5.82758621 Z M9.75234907,12.9655172 L4.09295479,12.9655172 C3.81388362,12.9655172 3.58765173,12.7339404 3.58765173,12.4482759 L3.58765173,12.3793103 L10.2576521,12.3793103 L10.2576521,12.4482759 C10.2576521,12.7339404 10.0314202,12.9655172 9.75234907,12.9655172 Z M12.8346977,9.44827586 C12.8346977,10.4957125 12.0051808,11.3448276 10.9819199,11.3448276 L2.86338401,11.3448276 C1.84012304,11.3448276 1.01060612,10.4957125 1.01060612,9.44827586 L1.01060612,6.86206897 L12.8346977,6.86206897 L12.8346977,9.44827586 Z" id="Shape"></path>
                        </g>
                    </g>
                </g>
            </g>
        </g>
    </g>
</svg>