<?xml version="1.0" encoding="UTF-8"?>
<svg width="18px" height="14px" viewBox="0 0 18 14" version="1.1" xmlns="http://www.w3.org/2000/svg" xmlns:xlink="http://www.w3.org/1999/xlink">
    <!-- Generator: Sketch 49.3 (51167) - http://www.bohemiancoding.com/sketch -->
    <title>bed</title>
    <desc>Created with Sketch.</desc>
    <defs></defs>
    <g id="Page-1" stroke="none" stroke-width="1" fill="none" fill-rule="evenodd">
        <g id="Mobile-|-Expanded" transform="translate(-227.000000, -2260.000000)" fill="#666666" fill-rule="nonzero">
            <g id="Property-Card-3" transform="translate(22.000000, 2020.000000)">
                <g id="Amenities-Copy-2" transform="translate(56.000000, 237.000000)">
                    <g id="Group" transform="translate(134.000000, 0.000000)">
                        <g id="bed" transform="translate(15.000000, 3.000000)">
                            <path d="M16.8346413,5.12651646 L7.0323524,5.12651646 C6.81041641,3.66897745 5.78923418,2.5626805 4.56247886,2.5626805 L2.5175794,2.5626805 C1.91929709,2.5626805 1.37632589,2.83651065 0.943977039,3.27498555 L0.943977039,0.59156557 C0.943977039,0.264875791 0.732642339,0 0.471988519,0 C0.2113347,0 0,0.264875791 0,0.59156557 L0,5.71808202 L0,10.8451762 L0,13.4084344 C0,13.7354131 0.2113347,14 0.471988519,14 C0.732642339,14 0.943977039,13.7354131 0.943977039,13.4084344 L0.943977039,11.4367418 L16.3626528,11.4367418 L16.3626528,13.4084344 C16.3626528,13.7354131 16.573757,14 16.8346413,14 C17.0955256,14 17.3066298,13.7354131 17.3066298,13.4084344 L17.3066298,10.8451762 L17.3066298,5.71808202 C17.3066298,5.39139225 17.0955256,5.12651646 16.8346413,5.12651646 Z M2.5175794,3.74581164 L4.56247886,3.74581164 C5.26470008,3.74581164 5.85399431,4.32900053 6.05588004,5.12651646 L1.0244087,5.12651646 C1.22629438,4.32900059 1.81535818,3.74581164 2.5175794,3.74581164 Z M0.943977039,6.30964759 L16.3626528,6.30964759 L16.3626528,10.2536106 L0.943977039,10.2536106 L0.943977039,6.30964759 Z" id="Shape"></path>
                        </g>
                    </g>
                </g>
            </g>
        </g>
    </g>
</svg>