<?xml version="1.0" encoding="UTF-8"?>
<svg width="38px" height="38px" viewBox="0 0 38 38" version="1.1" xmlns="http://www.w3.org/2000/svg" xmlns:xlink="http://www.w3.org/1999/xlink">
    <!-- Generator: Sketch 49.3 (51167) - http://www.bohemiancoding.com/sketch -->
    <title>Custom Icon / Check in</title>
    <desc>Created with Sketch.</desc>
    <defs></defs>
    <g id="Custom-Icon-/-Check-in" stroke="none" stroke-width="1" fill="none" fill-rule="evenodd">
        <g id="Money-icon" transform="translate(3.000000, 3.000000)" fill="#FFC34A" fill-rule="nonzero">
            <path d="M16,32 C7.163,32 0,24.836 0,16 C0,7.163 7.163,0 16,0 C24.836,0 32,7.163 32,16 C32,24.835 24.836,32 16,32 Z M16,1.999 C8.268,1.999 2,8.267 2,15.999 C2,23.729 8.268,29.999 16,29.999 C23.731,29.999 30,23.73 30,15.999 C30,8.267 23.731,1.999 16,1.999 Z" id="Shape"></path>
        </g>
        <polygon id="Shape" fill="#FFC34A" fill-rule="nonzero" points="13 19.3598756 14.6964328 17.6634427 17.8037603 20.7707702 23.3153674 15.2591631 25.013 16.9555959 17.7989614 24.1588369"></polygon>
    </g>
</svg>