<svg height="38" viewBox="0 0 38 38" width="38" xmlns="http://www.w3.org/2000/svg"><g fill="#ffc34a" fill-rule="nonzero"><path d="m16 32c-8.837 0-16-7.164-16-16 0-8.837 7.163-16 16-16 8.836 0 16 7.163 16 16 0 8.835-7.164 16-16 16zm0-30.001c-7.732 0-14 6.268-14 14 0 7.73 6.268 14 14 14 7.731 0 14-6.269 14-14 0-7.732-6.269-14-14-14z" transform="translate(3 3)"/><path d="m3.766 5.26879113c1.5292-1.54491398 3.5524-2.46345687 5.7124-2.58711465l.5044-.02869184.5044.02869184c2.16.12325367 4.1836 1.04220067 5.7124 2.58711465 1.5212 1.53723589 2.422 3.55778779 2.5572 5.71088787h-17.548c.1352-2.15310008 1.036-4.17365198 2.5572-5.71088787zm4.2752-1.56229073c-2.7392.76215218-4.9192 2.90312897-5.7544 5.64623023l-.1468.4825078.956.29702117.1468-.48291195c.7352-2.4137513 2.6548-4.29852211 5.0652-4.96974945l.4816-.13456876-.2664-.97309779zm11.9588 9.1458261h-20v1.1476735h20zm-10.5856-11.31185773c-2.5144.14345918-4.7784 1.23213255-6.4492 2.9201016-1.7956 1.8140515-2.9068 4.32074818-2.9068 7.08930843v.5738367h19.8476v-.5738367c0-2.76856025-1.1112-5.27525693-2.9068-7.08930843-1.6708-1.68796905-3.9348-2.77664242-6.4492-2.9201016v-.39239118h1.538v-1.14807759h-4.212v1.14807759h1.538v.39239118z" transform="translate(9 10)"/></g></svg>