<svg fill="#FFC34A" xmlns="http://www.w3.org/2000/svg" xmlns:xlink="http://www.w3.org/1999/xlink" version="1.1" x="0px" y="0px" viewBox="0 0 50 50" enable-background="new 0 0 50 50" xml:space="preserve"><g><path fill-rule="evenodd" clip-rule="evenodd" d="M9.415,20.716c3.823-3.823,8.881-6.096,14.281-6.402l1.261-0.071l1.261,0.071   c5.4,0.305,10.459,2.579,14.281,6.402c3.803,3.804,6.055,8.804,6.393,14.132H3.022C3.36,29.52,5.612,24.52,9.415,20.716    M20.103,16.85c-6.848,1.886-12.298,7.184-14.386,13.972L5.35,32.016l2.39,0.735l0.367-1.195   c1.838-5.973,6.637-10.637,12.663-12.298l1.204-0.333l-0.666-2.408L20.103,16.85z M50,39.482H0v2.84h50V39.482z M23.536,11.49   c-6.286,0.355-11.946,3.049-16.123,7.226c-4.489,4.489-7.267,10.692-7.267,17.543v1.42h49.619v-1.42   c0-6.851-2.778-13.054-7.267-17.543c-4.177-4.177-9.837-6.871-16.123-7.226v-0.971h3.845V7.678h-10.53v2.841h3.845V11.49z"></path></g></svg>