<?xml version="1.0" encoding="UTF-8"?>
<svg width="50px" height="35px" viewBox="0 0 50 35" version="1.1" xmlns="http://www.w3.org/2000/svg" xmlns:xlink="http://www.w3.org/1999/xlink">
    <!-- Generator: Sketch 49.3 (51167) - http://www.bohemiancoding.com/sketch -->
    <title>Concierge icon</title>
    <desc>Created with Sketch.</desc>
    <defs></defs>
    <g id="Page-1" stroke="none" stroke-width="1" fill="none" fill-rule="evenodd">
        <g id="Elitelyfe-|-Home-Page" transform="translate(-807.000000, -1478.000000)" fill="#333333" fill-rule="nonzero">
            <g id="Value-Props" transform="translate(-2.000000, 1079.000000)">
                <g id="Box-Center" transform="translate(771.000000, 307.000000)">
                    <g id="Concierge-icon" transform="translate(38.000000, 91.939726)">
                        <path d="M9.415,13.4153753 C13.238,9.67616712 18.296,7.4529863 23.696,7.15369315 L24.957,7.08424932 L26.218,7.15369315 C31.618,7.45200822 36.677,9.67616712 40.499,13.4153753 C44.302,17.136 46.554,22.026411 46.892,27.2376329 L3.022,27.2376329 C3.36,22.026411 5.612,17.136 9.415,13.4153753 Z M20.103,9.63410959 C13.255,11.4787726 7.805,16.6606521 5.717,23.299874 L5.35,24.4677041 L7.74,25.1865945 L8.107,24.0177863 C9.945,18.1757014 14.744,13.613926 20.77,11.9893315 L21.974,11.6636301 L21.308,9.30840822 L20.103,9.63410959 Z M50,31.7700658 L0,31.7700658 L0,34.5478192 L50,34.5478192 L50,31.7700658 Z M23.536,4.39158904 C17.25,4.73880822 11.59,7.37376164 7.413,11.459211 C2.924,15.8498219 0.146,21.9168658 0.146,28.6177068 L0.146,30.0065836 L49.765,30.0065836 L49.765,28.6177068 C49.765,21.9168658 46.987,15.8498219 42.498,11.459211 C38.321,7.37376164 32.661,4.73880822 26.375,4.39158904 L26.375,3.44187123 L30.22,3.44187123 L30.22,0.663139726 L19.69,0.663139726 L19.69,3.44187123 L23.535,3.44187123 L23.535,4.39158904 L23.536,4.39158904 Z" id="Shape"></path>
                    </g>
                </g>
            </g>
        </g>
    </g>
</svg>