<?xml version="1.0" encoding="UTF-8"?>
<svg width="41px" height="28px" viewBox="0 0 41 28" version="1.1" xmlns="http://www.w3.org/2000/svg" xmlns:xlink="http://www.w3.org/1999/xlink">
    <!-- Generator: sketchtool 49.3 (51167) - http://www.bohemiancoding.com/sketch -->
    <title>F3487204-0B96-4632-BA7C-9F83F4BC7156</title>
    <desc>Created with sketchtool.</desc>
    <defs></defs>
    <g id="Elitelyfe" stroke="none" stroke-width="1" fill="none" fill-rule="evenodd">
        <g id="Mobile" transform="translate(-141.000000, -8.000000)" fill="#FFFFFF" fill-rule="nonzero">
            <g id="Header" transform="translate(-43.000000, -1.000000)">
                <g id="White_Logo_Tagline_smallscale" transform="translate(184.000000, 9.000000)">
                    <path d="M30.2392571,12 L24.2579429,20.44891 L30.5414857,20.44891 L35.5575429,13.3467299 L38.3080571,13.3467299 L31.7129143,22.655545 L22.8100571,22.655545 L20.5164,19.4092891 L18.2133714,22.655545 L9.31051429,22.655545 L2.706,13.3467299 L5.4448,13.3467299 L10.4608571,20.44891 L16.7373714,20.44891 L10.7654286,12 L0,12 L8.47411429,24 L18.9982286,24 L20.5046857,21.8775355 L22.0017714,24 L32.5165143,24 L41,12 L30.2392571,12 Z M29.7238286,19.104455 L27.0014286,19.104455 L31.0662857,13.3467299 L33.7910286,13.3467299 L29.7238286,19.104455 Z M9.94074286,13.3467299 L14.0056,19.104455 L11.2668,19.104455 L7.20194286,13.3467299 L9.94074286,13.3467299 Z" id="Shape"></path>
                    <polygon id="Shape" points="10.3928965 28 30.1009307 28 30.8765432 26.5 9.61728395 26.5"></polygon>
                    <path d="M20.2388253,0 L12.654321,10.8274493 L18.0110794,18.4864403 L20.2388253,15.3225018 L22.4665712,18.5 L27.8395062,10.8274493 L20.2388253,0 Z M21.5237078,10.8251893 L20.2388253,12.6557537 L18.9516318,10.8184095 L20.2388253,8.98558515 L21.5237078,10.8251893 Z M20.9644604,13.9665282 L23.1852735,10.8297093 L20.2388253,6.63297093 L17.2923771,10.8297093 L19.5131902,13.9936477 L18.0157012,16.1270462 L14.2973992,10.8229294 L20.2388253,2.37069387 L26.1825624,10.8184095 L22.4573275,16.136086 L20.9644604,13.9665282 Z" id="Shape"></path>
                </g>
            </g>
        </g>
    </g>
</svg>