<?xml version="1.0" encoding="UTF-8"?>
<svg width="38px" height="38px" viewBox="0 0 38 38" version="1.1" xmlns="http://www.w3.org/2000/svg" xmlns:xlink="http://www.w3.org/1999/xlink">
    <!-- Generator: Sketch 49.3 (51167) - http://www.bohemiancoding.com/sketch -->
    <title>Custom Icon / Hand Selected</title>
    <desc>Created with Sketch.</desc>
    <defs></defs>
    <g id="Custom-Icon-/-Hand-Selected" stroke="none" stroke-width="1" fill="none" fill-rule="evenodd">
        <g id="Money-icon-Copy" transform="translate(3.000000, 3.000000)" fill="#FFC34A" fill-rule="nonzero">
            <path d="M16,32 C7.163,32 0,24.836 0,16 C0,7.163 7.163,0 16,0 C24.836,0 32,7.163 32,16 C32,24.835 24.836,32 16,32 Z M16,1.999 C8.268,1.999 2,8.267 2,15.999 C2,23.729 8.268,29.999 16,29.999 C23.731,29.999 30,23.73 30,15.999 C30,8.267 23.731,1.999 16,1.999 Z" id="Shape"></path>
        </g>
        <g id="handselected_ffffff" transform="translate(8.000000, 15.000000)" fill="#FFC34A">
            <path d="M20.6472252,0.000252844984 C20.3993302,-0.00447754381 20.147518,0.0570389042 19.9195281,0.19554659 C19.9195281,0.195617902 19.9192832,0.195689215 19.9192098,0.195760527 L16.3271203,2.38170885 C16.028716,1.75354412 15.3767217,1.333671 14.6848928,1.50159505 L14.6833503,1.50207047 L10.9672277,2.39614961 L8.12048787,0.889601595 C8.06596322,0.860750977 8.00573393,0.842102786 7.94406012,0.834973924 C7.88238631,0.827842684 7.81934142,0.832240282 7.75935697,0.847857696 L3.81583201,1.8736437 L3.67062066,1.34600567 C3.65404536,1.2858394 3.62517937,1.22889408 3.58612827,1.17947221 C3.54710165,1.13004797 3.49796336,1.08818522 3.44241041,1.05704072 C3.38685746,1.02589622 3.32493881,1.00549612 3.26135529,0.997376016 C3.19774729,0.989246403 3.13249889,0.993430063 3.07055576,1.00957043 L0.362686061,1.71556313 C0.30081638,1.73170351 0.242251966,1.7597578 0.191448805,1.79763895 C0.140621161,1.83552009 0.0975792542,1.88319242 0.0655549004,1.93706418 C0.0335305466,1.99093594 0.0125482291,2.05096434 0.00417488888,2.11263292 C-0.00419845135,2.1743015 6.16691181e-05,2.23756273 0.016612482,2.29765055 L2.04384224,9.64757415 C2.06044202,9.70771427 2.0893325,9.76462156 2.12835912,9.81401728 C2.16741022,9.86338922 2.21652402,9.90522583 2.27207697,9.9363418 C2.32760544,9.96745778 2.38947512,9.98785312 2.45305864,9.99595896 C2.51661768,10.004041 2.5818416,10 2.64376024,9.98383586 L5.28062791,9.2968598 C5.34168964,9.28093336 5.39951955,9.25343055 5.44988201,9.21630056 C5.50024446,9.17917058 5.54306602,9.13246096 5.57526176,9.07961847 C5.60743301,9.02677599 5.62892948,8.96782441 5.63815974,8.90711379 C5.64741449,8.8463794 5.64437854,8.78390975 5.62929673,8.72429259 L5.39731604,7.80785701 C6.35616143,7.72677482 7.08559688,7.8503592 9.23632114,8.06503327 C9.23632114,8.06503327 9.23632114,8.06503327 9.23656598,8.06503327 C11.1301161,8.25472424 11.9421832,8.49036416 13.9939453,7.95628187 L13.9939453,7.95635319 C13.9939453,7.95632942 13.9941902,7.95623433 13.9943126,7.95621056 C16.2062455,7.38195562 17.7716439,5.56063708 18.6326289,4.79944859 L21.3989651,2.4671506 C21.3994303,2.46667519 21.399871,2.46643748 21.4003361,2.46596206 C21.6419144,2.26073925 21.8409158,2.00307094 21.9408083,1.69148094 C22.0407008,1.37988857 22.0205754,1.00333298 21.831098,0.681369404 C21.8305593,0.680418573 21.8300207,0.679467741 21.8294821,0.678611992 C21.5793102,0.260169881 21.1205637,0.0094521438 20.6473231,0.000400223931 L20.6472252,0.000252844984 Z M20.619363,0.952346993 C20.7586983,0.951396161 20.9034445,1.02501432 20.9815712,1.15454853 C21.0359734,1.24765637 21.0378097,1.30849535 21.0056629,1.40874631 C20.9734672,1.50921835 20.886502,1.63837698 20.7567152,1.74904193 C20.7562255,1.74951734 20.7558093,1.74975505 20.7553196,1.75023047 L17.9851885,4.08571137 C17.9823729,4.08811222 17.9795818,4.09053684 17.9768397,4.09298523 C17.0009783,4.95455305 15.5561854,6.5664984 13.7409823,7.03758807 C13.7407375,7.03761185 13.740713,7.03763562 13.7405906,7.03765939 C11.8116619,7.53984126 11.2869081,7.31444656 9.33677674,7.11907437 C9.33677674,7.1190506 9.33653191,7.11902683 9.33653191,7.11900306 C7.1047919,6.89627068 6.2958342,6.76063451 5.16119764,6.87482942 L4.78451974,5.38670616 C4.76973174,5.32575783 4.74238372,5.26770954 4.70458128,5.21698266 C4.66677883,5.16625578 4.61852195,5.12289784 4.56350763,5.09021299 C4.5085178,5.05750437 4.44679502,5.03551639 4.3830646,5.02591298 C4.31933417,5.01640466 4.25364508,5.01901945 4.19101641,5.03399506 C4.12838774,5.04897066 4.06884399,5.07602183 4.01696356,5.11322313 C3.96508312,5.15040065 3.92089049,5.197657 3.8877399,5.251379 C3.85458931,5.30510101 3.83252972,5.36524113 3.82325049,5.42718782 C3.81394678,5.48915829 3.81742343,5.55291158 3.83341112,5.61357465 L4.5637035,8.49896919 L2.86310748,8.94200932 L1.08913461,2.51050854 L2.8509392,2.05121393 L3.35116059,3.86856513 C3.36692793,3.92949919 3.39530425,3.98733592 3.43408604,4.03763255 C3.47286783,4.08792918 3.52203059,4.13064531 3.5778039,4.16250293 C3.6335772,4.19436055 3.69591206,4.21533353 3.76003422,4.22381257 C3.82415638,4.23229875 3.89001686,4.22825771 3.95252311,4.21204603 C4.01505385,4.19583434 4.07418138,4.16743062 4.12540076,4.12903365 C4.17662014,4.09063668 4.2198824,4.04227023 4.25185778,3.98764732 C4.28383317,3.93302678 4.30452169,3.87219255 4.31228294,3.80982035 C4.32006868,3.74744578 4.31492715,3.68358315 4.29729907,3.62313164 L4.06859915,2.7921188 L7.82367499,1.81536245 L10.6655916,3.319386 C10.7187451,3.3475235 10.777334,3.36596964 10.8373919,3.37348121 C10.8974498,3.38099278 10.9589278,3.37756979 11.0177126,3.36342616 L14.9203746,2.42447964 C14.9208888,2.42436079 14.9213785,2.42424193 14.9218926,2.42400423 C15.0841689,2.38441634 15.3813735,2.53335703 15.4876807,2.91323577 C15.5917843,3.29611439 15.409554,3.5728255 15.2586135,3.61217092 L10.7341452,4.78882305 C10.6714186,4.80427406 10.6118994,4.83180065 10.5601413,4.86947736 C10.5084078,4.90717785 10.46446,4.95493338 10.4317012,5.00910703 C10.3989423,5.06325691 10.3774213,5.12380113 10.3687297,5.18603308 C10.3600381,5.24826503 10.3642492,5.3121847 10.3809714,5.37284778 C10.3977181,5.43353463 10.4270003,5.49091733 10.4665656,5.5405983 C10.5061308,5.59030304 10.5559302,5.6322585 10.6121932,5.66327939 C10.6684561,5.69430028 10.7311093,5.71433906 10.7953294,5.72185064 C10.8595495,5.72945729 10.925312,5.72446542 10.9875489,5.70735045 L15.5120907,4.53069595 C16.0578023,4.38869158 16.3874965,3.93612887 16.4737761,3.41459043 L20.4392383,1.00140992 L20.4392383,1.00133861 C20.4935671,0.9684422 20.5558774,0.952701178 20.6192651,0.95230896 L20.619363,0.952346993 Z" id="Shape"></path>
        </g>
    </g>
</svg>