<svg fill="#FFC34A" xmlns="http://www.w3.org/2000/svg" xmlns:xlink="http://www.w3.org/1999/xlink" version="1.1" x="0px" y="0px" viewBox="0 0 512 512" enable-background="new 0 0 512 512" xml:space="preserve"><g><path d="M355.531,232.379c-3.453-3.406-9.438-3.438-12.875,0c-1.719,1.719-2.672,4-2.672,6.438c0,2.422,0.953,4.703,2.672,6.406   l25.156,25.203l-25.156,25.141c-1.719,1.719-2.656,4-2.656,6.422c0,2.453,0.938,4.734,2.656,6.453   c3.438,3.422,9.406,3.422,12.875,0l25.156-25.172l25.156,25.172c3.438,3.422,9.438,3.422,12.875,0c1.703-1.719,2.656-4,2.656-6.453   c0-2.422-0.938-4.703-2.656-6.406l-25.172-25.156l25.172-25.187c1.719-1.719,2.656-4,2.656-6.422c0-2.438-0.938-4.719-2.656-6.422   c-3.438-3.484-9.422-3.438-12.875-0.016l-25.156,25.156L355.531,232.379z"></path><path d="M511.828,59.676c-0.859-2.625-4.484-5.438-8.641-5.438c-0.938,0.016-2.641,0.375-2.719,0.375L382.25,83.958L258.5,54.489   c-2.125-0.531-4.062-0.234-5,0l-123.75,29.5L11.281,54.583c-0.031,0-1.594-0.328-2.469-0.344c-4.156,0-7.781,2.812-8.812,6.844   l0.172,361.625c0.641,1.781,3.094,4.266,6.234,5.109l122.219,29.562c2.094,0.578,3.5,0.531,5.078,0.078l117.828-28.125   c1.562-0.297,2.969-0.453,4.375-0.453c1.594,0,3,0.156,4.328,0.406l117.844,28.109c2.031,0.578,3.422,0.516,5.062,0.031   l122.578-29.641c3.016-0.812,5.469-3.297,6.281-6.484L511.828,59.676z M494.094,411.895l-104.312,25.25v-90.672   c0-5.016-4.078-9.109-9.094-9.109c-5.031,0-9.094,4.094-9.094,9.109v90.672l-106.031-25.281v-89.047   c0-5.031-4.281-9.125-9.562-9.125s-9.562,4.094-9.562,9.125v89.047l-106.031,25.281v-106.25c0-5.031-4.062-9.125-9.094-9.125   c-5.016,0-9.094,4.094-9.094,9.125v106.25l-104.312-25.25V310.754l3.969-1.266c26.344-8.547,53.531-15.703,80.781-21.297   c4.781-0.703,8.125-4.578,8.125-9.047c0-5.594-5.453-9.953-10.797-8.953c-24.922,5.047-50.078,11.484-74.656,19.078l-7.422,2.297   V74.895l104.312,25.25v116.703c0.031,4.953,4.125,9,9.094,9s9.062-4.047,9.094-9.047V100.176l106.031-25.312v131.875   c0,5.031,4.281,9.125,9.562,9.125s9.562-4.094,9.562-9.125V74.864l106.031,25.312v94.156c0,5.031,4.062,9.141,9.094,9.141   c5.016,0,9.094-4.094,9.094-9.125v-94.203l104.312-25.25V411.895z"></path><path d="M225.891,255.145c-0.141,0.016-44.266,2.656-66.016,5.312c-4.562,0.562-8.016,4.438-8.016,9.031   c-0.016,5.531,5.203,9.812,10.609,8.969c21.734-2.656,63.906-5.234,65.688-5.344c3.688-0.688,6.844-4.453,6.844-8.859   C235,259.223,230.906,255.145,225.891,255.145z"></path><path d="M304.625,256.02c-0.062,0-18.781-0.875-18.781-0.875c-4.75,0-8.828,4.078-8.828,9.109c0,5.016,4.078,9.109,9.094,9.109   l2.984,0.125c4.812,0.219,14.469,0.688,15.609,0.734c4.984-0.047,9.016-4.125,9.016-9.109   C313.719,260.113,309.656,256.02,304.625,256.02z"></path></g></svg>