<?xml version="1.0" encoding="UTF-8"?>
<svg width="38px" height="38px" viewBox="0 0 38 38" version="1.1" xmlns="http://www.w3.org/2000/svg" xmlns:xlink="http://www.w3.org/1999/xlink">
    <!-- Generator: Sketch 49.3 (51167) - http://www.bohemiancoding.com/sketch -->
    <title>Custom Icon / Itinerary</title>
    <desc>Created with Sketch.</desc>
    <defs></defs>
    <g id="Custom-Icon-/-Itinerary" stroke="none" stroke-width="1" fill="none" fill-rule="evenodd">
        <g id="Money-icon" transform="translate(3.000000, 3.000000)" fill="#FFC34A" fill-rule="nonzero">
            <path d="M16,32 C7.163,32 0,24.836 0,16 C0,7.163 7.163,0 16,0 C24.836,0 32,7.163 32,16 C32,24.835 24.836,32 16,32 Z M16,1.999 C8.268,1.999 2,8.267 2,15.999 C2,23.729 8.268,29.999 16,29.999 C23.731,29.999 30,23.73 30,15.999 C30,8.267 23.731,1.999 16,1.999 Z" id="Shape"></path>
        </g>
        <g id="itinerary_ffffff" transform="translate(10.000000, 12.000000)" fill="#FFC34A" fill-rule="nonzero">
            <path d="M12.5730557,6.09533631 C12.4457796,5.96951477 12.2251751,5.96833266 12.0984888,6.09533631 C12.0351272,6.15883814 12,6.24310089 12,6.33316339 C12,6.42263485 12.0351272,6.5068976 12.0984888,6.56980836 L13.025728,7.50083602 L12.0984888,8.42957332 C12.0351272,8.49307515 12.0005898,8.5773379 12.0005898,8.66680935 C12.0005898,8.75742598 12.035164,8.84168873 12.0984888,8.90519055 C12.2252119,9.03160315 12.4451898,9.03160315 12.5730557,8.90519055 L13.5002949,7.97530807 L14.4275341,8.90519055 C14.5542573,9.03160315 14.7754147,9.03160315 14.902101,8.90519055 C14.9648728,8.84168873 15,8.75742598 15,8.66680935 C15,8.5773379 14.9654257,8.49307515 14.902101,8.43016438 L13.974272,7.50087296 L14.902101,6.57043636 C14.9654626,6.50693454 15,6.42267179 15,6.33320034 C15,6.24313783 14.9654257,6.15887508 14.902101,6.09596431 C14.7753778,5.96726136 14.5548102,5.96896065 14.4275341,6.09537325 L13.5002949,7.02466467 L12.5730557,6.09533631 Z" id="Shape"></path>
            <path d="M17.9939883,0.190219747 C17.963789,0.0991678992 17.8363473,0.00159500533 17.6902025,0.00159500533 C17.6572259,0.00214998802 17.5973547,0.0146024121 17.5946125,0.0146024121 L13.4385028,1.03247535 L9.08790837,0.0103012963 C9.0132012,-0.00811719172 8.94510341,0.00218467443 8.91212678,0.0103012963 L4.56153235,1.03355063 L0.396598431,0.0135618195 C0.395508585,0.0135618195 0.340559259,0.00218467443 0.30979748,0.00162969175 C0.16368782,0.00162969175 0.0362461645,0.0991678992 0,0.239023537 L0.00604688681,12.7824995 C0.0285820871,12.844276 0.114820537,12.9304717 0.225211377,12.9597124 L4.52198149,13.9851123 C4.59559882,14.005161 4.6450286,14.0035307 4.70050527,13.9878178 L8.84290399,13.0122623 C8.89781816,13.0019604 8.9472831,12.9965493 8.99671288,12.9965493 C9.05275206,12.9965493 9.10218184,13.0019604 9.14886943,13.010632 L13.2918306,13.9856326 C13.3632331,14.0056813 13.4121356,14.0035307 13.4697919,13.9867078 L17.7791832,12.9585677 C17.8852146,12.9304023 17.9714531,12.8442066 18,12.733661 L17.9939883,0.190219747 Z M17.3705261,12.4074352 L13.7033002,13.2832673 L13.7033002,10.1381804 C13.7033002,9.9641933 13.5599327,9.82222179 13.3835886,9.82222179 C13.2067172,9.82222179 13.0638771,9.96422799 13.0638771,10.1381804 L13.0638771,13.2832673 L9.33621745,12.4063599 L9.33621745,9.31763847 C9.33621745,9.1431311 9.18571325,9.00112491 9.00005273,9.00112491 C8.81439222,9.00112491 8.66388802,9.1431311 8.66388802,9.31763847 L8.66388802,12.4063599 L4.93622839,13.2832673 L4.93622839,9.59783536 C4.93622839,9.42332799 4.79342342,9.28132179 4.61651683,9.28132179 C4.44017273,9.28132179 4.29680527,9.42332799 4.29680527,9.59783536 L4.29680527,13.2832673 L0.629579355,12.4074352 L0.629579355,8.89921621 L0.769114783,8.85530321 C1.69527284,8.55883839 2.65106768,8.31062238 3.60907736,8.11658656 C3.77715972,8.09220201 3.89472245,7.95779214 3.89472245,7.80277854 C3.89472245,7.60874272 3.70301504,7.45754462 3.51513968,7.49223104 C2.6389739,7.66729339 1.75458155,7.89056986 0.890509552,8.15397852 L0.629579355,8.23365322 L0.629579355,0.718112342 L4.29680527,1.5939444 L4.29680527,5.64195344 C4.29789511,5.81375527 4.44182508,5.9541312 4.61651683,5.9541312 C4.79120858,5.9541312 4.93510339,5.81375527 4.93622839,5.64032318 L4.93622839,1.59501968 L8.66388802,0.717037063 L8.66388802,5.29130844 C8.66388802,5.46581581 8.81439222,5.607822 9.00005273,5.607822 C9.18571325,5.607822 9.33621745,5.46581581 9.33621745,5.29130844 L9.33621745,0.717037063 L13.0638771,1.59501968 L13.0638771,4.86095405 C13.0638771,5.03546142 13.206682,5.1780226 13.3835886,5.1780226 C13.5599327,5.1780226 13.7033002,5.0360164 13.7033002,4.86150903 L13.7033002,1.5939444 L17.3705261,0.718112342 L17.3705261,12.4074352 Z" id="Shape"></path>
            <path d="M7.67131755,8 C7.66622981,8.00068323 6.07405577,8.11341567 5.28924477,8.22683133 C5.12463292,8.25082968 5.00000132,8.4163414 5.00000132,8.61247022 C4.99942399,8.84865322 5.18774255,9.03145912 5.38280867,8.9954616 C6.16704234,8.88204594 7.68874576,8.771961 7.75304614,8.76726382 C7.88612122,8.73788506 8,8.57711323 8,8.38896962 C8,8.17413746 7.85227512,8 7.67131755,8 Z" id="Shape"></path>
            <path d="M10.7522273,8.04586675 C10.7505381,8.04586675 10.2405253,8 10.2405253,8 C10.1111081,8 10,8.21376527 10,8.47748598 C10,8.7404204 10.1111081,8.95497196 10.2477727,8.95497196 L10.3290739,8.96152435 C10.4601804,8.97300414 10.7232924,8.99758872 10.7543525,9 C10.8901452,8.9975363 11,8.78377103 11,8.52251402 C11,8.2604183 10.8893006,8.04586675 10.7522273,8.04586675 Z" id="Shape"></path>
        </g>
    </g>
</svg>