<?xml version="1.0" encoding="UTF-8"?>
<svg width="49px" height="50px" viewBox="0 0 49 50" version="1.1" xmlns="http://www.w3.org/2000/svg" xmlns:xlink="http://www.w3.org/1999/xlink">
    <!-- Generator: Sketch 49.3 (51167) - http://www.bohemiancoding.com/sketch -->
    <title>Itinerary Icon</title>
    <desc>Created with Sketch.</desc>
    <defs></defs>
    <g id="Page-1" stroke="none" stroke-width="1" fill="none" fill-rule="evenodd">
        <g id="Elitelyfe-|-Home-Page" transform="translate(-1229.000000, -1463.000000)" fill="#333333" fill-rule="nonzero">
            <g id="Value-Props" transform="translate(-2.000000, 1079.000000)">
                <g id="Box-Left" transform="translate(1195.000000, 307.000000)">
                    <g id="Itinerary-Icon" transform="translate(36.000000, 77.268493)">
                        <path d="M14.7632856,44.9989946 C15.2603742,44.9989946 15.7574628,44.7288871 15.9783911,44.2426935 L27.798054,21.1214899 C28.7922313,19.2307373 29.2893199,17.1779202 29.344552,15.01706 C29.344552,14.909017 29.399784,14.800974 29.399784,14.692931 C29.399784,6.85981296 22.8271678,0.431254013 14.7632856,0.431254013 C6.75463549,0.431254013 0.182019199,6.85981296 0.182019199,14.692931 C0.182019199,14.800974 0.182019199,14.909017 0.237251269,15.01706 C0.292483339,17.1779202 0.789571965,19.2307373 1.72851715,21.0674684 L13.5481801,44.188672 C13.7691083,44.7288871 14.266197,44.9989946 14.7632856,44.9989946 Z M4.21396028,19.8789954 C3.38547924,18.3123717 2.99885475,16.5296621 2.99885475,14.692931 C2.99885475,14.584888 2.99885475,14.476845 2.94362268,14.4228235 C3.10931889,8.15632905 8.35636551,3.1323292 14.7632856,3.1323292 C21.1702057,3.1323292 26.4724843,8.15632905 26.5829485,14.4228235 C26.5829485,14.5308665 26.5277164,14.6389095 26.5277164,14.692931 C26.5277164,16.5296621 26.1410919,18.2583502 25.3126109,19.8789954 L14.7632856,40.6232528 L4.21396028,19.8789954 Z" id="Shape"></path>
                        <path d="M22.75,14.5489726 C22.75,10.2993741 19.2198276,6.84657534 14.875,6.84657534 C10.5301724,6.84657534 7,10.2993741 7,14.5489726 C7,18.7985711 10.5301724,22.2513699 14.875,22.2513699 C19.2198276,22.2513699 22.75,18.7985711 22.75,14.5489726 Z M14.875,19.5953708 C12.0508621,19.5953708 9.71551724,17.3112116 9.71551724,14.5489726 C9.71551724,11.7867336 12.0508621,9.5025744 14.875,9.5025744 C17.6991379,9.5025744 20.0344828,11.7867336 20.0344828,14.5489726 C20.0344828,17.3112116 17.7534483,19.5953708 14.875,19.5953708 Z" id="Shape"></path>
                        <path d="M43.2078014,25.8247731 C43.9810504,25.8247731 44.5886032,25.1765151 44.5333711,24.420214 C44.5333711,23.663913 43.8705863,23.0696764 43.0973373,23.1236979 C42.6002487,23.1236979 30.7253537,23.6098915 30.7253537,31.2269235 C30.7253537,34.7383212 34.2602062,36.6830954 37.1322738,38.1956975 C38.9549321,39.1680846 41.0537507,40.3025361 41.0537507,41.3289447 C41.0537507,41.4910092 40.9985187,41.7070952 40.6671262,42.0852458 C37.6293624,45.0564285 23.2137922,46.1368585 14.8185177,46.082837 C14.0452687,46.082837 13.4377159,46.6770736 13.4377159,47.4333746 C13.4377159,48.1896757 14.0452687,48.7839122 14.8185177,48.7839122 C14.8737497,48.7839122 14.9842139,48.7839122 15.0394459,48.7839122 C18.242906,48.7839122 37.9055228,48.5678262 42.6002487,44.0300199 C43.5944259,43.0576328 43.8153542,42.0312242 43.8153542,41.3829662 C43.8153542,38.7359125 41.1089828,37.2773319 38.4578435,35.8727728 C36.0276324,34.5762567 33.4869572,33.1716976 33.4869572,31.280945 C33.4869572,26.2029237 43.0973373,25.8247731 43.2078014,25.8247731 Z" id="Shape"></path>
                        <path d="M43.2630335,5.83340439 C40.2252697,5.83340439 37.7398266,8.26437205 37.7398266,11.2355548 C37.7398266,11.2895763 37.7398266,11.3435978 37.7398266,11.4516408 C37.7398266,12.2619633 37.9607548,12.9642429 38.2921472,13.6665224 L42.047928,20.9054039 C42.2688563,21.337576 42.7659449,21.661705 43.2630335,21.661705 C43.7601221,21.661705 44.2572108,21.3915975 44.478139,20.9054039 L48.1786877,13.6665224 C48.5100801,12.9642429 48.7310084,12.2079418 48.7310084,11.4516408 C48.7310084,11.3976193 48.7310084,11.3435978 48.7310084,11.2355548 C48.7862405,8.26437205 46.3007973,5.83340439 43.2630335,5.83340439 Z M46.024637,11.2355548 C46.024637,11.6677268 45.9141729,12.0458773 45.7484766,12.4240278 L43.2630335,17.2319417 L40.8328225,12.4780493 C40.6671262,12.0998988 40.5566621,11.7217483 40.5566621,11.2895763 C40.5566621,11.2355548 40.5566621,11.1815333 40.5566621,11.1275118 C40.6118942,9.72295265 41.8269997,8.58850108 43.3182656,8.58850108 C44.8095315,8.58850108 46.024637,9.72295265 46.0798691,11.1275118 C46.024637,11.1815333 46.024637,11.1815333 46.024637,11.2355548 Z" id="Shape"></path>
                    </g>
                </g>
            </g>
        </g>
    </g>
</svg>