<?xml version="1.0" encoding="UTF-8"?>
<svg width="38px" height="38px" viewBox="0 0 38 38" version="1.1" xmlns="http://www.w3.org/2000/svg" xmlns:xlink="http://www.w3.org/1999/xlink">
    <!-- Generator: Sketch 49.3 (51167) - http://www.bohemiancoding.com/sketch -->
    <title>Custom Icon / Pricematch</title>
    <desc>Created with Sketch.</desc>
    <defs></defs>
    <g id="Custom-Icon-/-Pricematch" stroke="none" stroke-width="1" fill="none" fill-rule="evenodd">
        <g id="Money-icon-Copy" transform="translate(3.000000, 3.000000)" fill="#FFC34A" fill-rule="nonzero">
            <path d="M16,32 C7.163,32 0,24.836 0,16 C0,7.163 7.163,0 16,0 C24.836,0 32,7.163 32,16 C32,24.835 24.836,32 16,32 Z M16,1.999 C8.268,1.999 2,8.267 2,15.999 C2,23.729 8.268,29.999 16,29.999 C23.731,29.999 30,23.73 30,15.999 C30,8.267 23.731,1.999 16,1.999 Z" id="Shape"></path>
        </g>
        <g id="pricematch_ffffff" transform="translate(9.000000, 12.000000)" fill="#FFC34A" fill-rule="nonzero">
            <path d="M17.5002776,0 L10.004442,0 C9.86451971,0 9.74458634,0.0600667408 9.64464187,0.140155729 L0.149916713,9.65072303 C-0.0499722376,9.85094549 -0.0499722376,10.1713014 0.149916713,10.3515017 L7.64575236,17.8598443 C7.74569684,17.9599555 7.86563021,18 8.00555247,18 C8.14547474,18 8.26540811,17.9599555 8.36535258,17.8598443 L17.8600777,8.34927697 C17.9600222,8.24916574 18,8.12903226 18,7.98887653 L18,0.500556174 C18,0.220244716 17.7801222,0 17.5002776,0 Z M17.0005552,7.80867631 L8.00555247,16.8186874 L1.20932815,10.0111235 L10.2043309,1.00111235 L17.0005552,1.00111235 L17.0005552,7.80867631 Z" id="Shape"></path>
            <path d="M14.5,5 C15.32,5 16,4.32 16,3.5 C16,2.68 15.32,2 14.5,2 C13.68,2 13,2.68 13,3.5 C13,4.32 13.68,5 14.5,5 Z M14.5,3 C14.78,3 15,3.22 15,3.5 C15,3.78 14.78,4 14.5,4 C14.22,4 14,3.78 14,3.5 C14,3.22 14.22,3 14.5,3 Z" id="Shape"></path>
            <path d="M9.99603175,5.5 C9.99603175,5.22 9.77777778,5 9.5,5 C9.22222222,5 9.00396825,5.22 9.00396825,5.5 L9.00396825,6 L8.74603175,6 C7.79365079,6 7,6.78 7,7.76 C7,8.74 7.77380952,9.52 8.74603175,9.52 L9.00396825,9.52 L9.00396825,11 L7.51587302,11 C6.88095238,11 6.88095238,12 7.51587302,12 L9.00396825,12 L9.00396825,12.5 C9.00396825,12.78 9.22222222,13 9.5,13 C9.77777778,13 9.99603175,12.78 9.99603175,12.5 L9.99603175,12 L10.2539683,12 C11.2063492,12 12,11.22 12,10.24 C12,9.26 11.2261905,8.48 10.2539683,8.48 L9.99603175,8.48 L9.99603175,7 L11.484127,7 C12.1190476,7 12.1190476,6 11.484127,6 L9.99603175,6 L9.99603175,5.5 Z M9.00396825,8.5 L8.74603175,8.5 C8.32936508,8.5 7.99206349,8.16 7.99206349,7.74 C7.99206349,7.32 8.32936508,6.98 8.74603175,6.98 L9.00396825,6.98 L9.00396825,8.5 Z M10.2539683,9.5 C10.6706349,9.5 11.0079365,9.84 11.0079365,10.26 C11.0079365,10.68 10.6507937,11 10.2539683,11 L9.99603175,11 L9.99603175,9.5 L10.2539683,9.5 Z" id="Shape"></path>
        </g>
    </g>
</svg>