<svg fill="#FFC34A" xmlns="http://www.w3.org/2000/svg" xmlns:xlink="http://www.w3.org/1999/xlink" version="1.1" x="0px" y="0px" viewBox="0 0 100 100" enable-background="new 0 0 100 100" xml:space="preserve"><path d="M92.5,5H55c-0.7,0-1.3,0.3-1.8,0.7L5.7,53.2c-1,1-1,2.6,0,3.5l37.5,37.5c0.5,0.5,1.1,0.7,1.8,0.7s1.3-0.2,1.8-0.7l47.5-47.5  c0.5-0.5,0.7-1.1,0.7-1.8V7.5C95,6.1,93.9,5,92.5,5z M90,44L45,89L11,55l45-45h34V44z"></path><path d="M77.5,30c4.1,0,7.5-3.4,7.5-7.5S81.6,15,77.5,15S70,18.4,70,22.5S73.4,30,77.5,30z M77.5,20c1.4,0,2.5,1.1,2.5,2.5  S78.9,25,77.5,25S75,23.9,75,22.5S76.1,20,77.5,20z"></path><path d="M52.5,32.5c0-1.4-1.1-2.5-2.5-2.5s-2.5,1.1-2.5,2.5V35h-1.3c-4.8,0-8.8,3.9-8.8,8.8s3.9,8.8,8.8,8.8h1.3V60H40  c-3.2,0-3.2,5,0,5h7.5v2.5c0,1.4,1.1,2.5,2.5,2.5s2.5-1.1,2.5-2.5V65h1.3c4.8,0,8.8-3.9,8.8-8.8s-3.9-8.8-8.8-8.8h-1.3V40H60  c3.2,0,3.2-5,0-5h-7.5V32.5z M47.5,47.5h-1.3c-2.1,0-3.8-1.7-3.8-3.8s1.7-3.8,3.8-3.8h1.3V47.5z M53.8,52.5c2.1,0,3.8,1.7,3.8,3.8  S55.8,60,53.8,60h-1.3v-7.5H53.8z"></path></svg>