<?xml version="1.0" encoding="UTF-8"?>
<svg width="38px" height="38px" viewBox="0 0 38 38" version="1.1" xmlns="http://www.w3.org/2000/svg" xmlns:xlink="http://www.w3.org/1999/xlink">
    <!-- Generator: Sketch 49.3 (51167) - http://www.bohemiancoding.com/sketch -->
    <title>Custom Icon / Share</title>
    <desc>Created with Sketch.</desc>
    <defs></defs>
    <g id="Custom-Icon-/-Share" stroke="none" stroke-width="1" fill="none" fill-rule="evenodd">
        <g id="noun_444031_ffffff" transform="translate(13.000000, 12.000000)" fill="#333333" fill-rule="nonzero">
            <path d="M3.76086957,4.43478261 C3.95652174,4.43478261 4.18478261,4.36956522 4.34782609,4.20652174 L5.7173913,2.83695652 L5.7173913,9.39130435 C5.7173913,9.84782609 6.07608696,10.2065217 6.5326087,10.2065217 C6.98913043,10.2065217 7.34782609,9.84782609 7.34782609,9.39130435 L7.34782609,2.80434783 L8.7173913,4.17391304 C8.88043478,4.33695652 9.07608696,4.40217391 9.30434783,4.40217391 C9.5326087,4.40217391 9.72826087,4.33695652 9.89130435,4.17391304 C10.2173913,3.84782609 10.2173913,3.32608696 9.89130435,3.0326087 L7.11956522,0.260869565 C6.95652174,0.097826087 6.72826087,0 6.5326087,0 C6.33695652,0 6.10869565,0.097826087 5.94565217,0.260869565 L3.17391304,3.0326087 C2.84782609,3.35869565 2.84782609,3.88043478 3.17391304,4.17391304 C3.33695652,4.33695652 3.56521739,4.43478261 3.76086957,4.43478261 Z M11.75,5.70652174 L9.82608696,5.70652174 C9.36956522,5.70652174 9.01086957,6.06521739 9.01086957,6.52173913 C9.01086957,6.97826087 9.36956522,7.33695652 9.82608696,7.33695652 L10.9347826,7.33695652 L10.9347826,13.3695652 L2.13043478,13.3695652 L2.13043478,7.33695652 L3.20652174,7.33695652 C3.66304348,7.33695652 4.02173913,6.97826087 4.02173913,6.52173913 C4.02173913,6.06521739 3.66304348,5.70652174 3.20652174,5.70652174 L1.31521739,5.70652174 C0.858695652,5.70652174 0.5,6.06521739 0.5,6.52173913 L0.5,14.1847826 C0.5,14.6413043 0.858695652,15 1.31521739,15 L11.75,15 C12.2065217,15 12.5652174,14.6413043 12.5652174,14.1847826 L12.5652174,6.52173913 C12.5652174,6.06521739 12.2065217,5.70652174 11.75,5.70652174 Z" id="Shape"></path>
        </g>
    </g>
</svg>