<?xml version="1.0" encoding="UTF-8"?>
<svg width="68px" height="67px" viewBox="0 0 68 67" version="1.1" xmlns="http://www.w3.org/2000/svg" xmlns:xlink="http://www.w3.org/1999/xlink">
    <!-- Generator: Sketch 49.3 (51167) - http://www.bohemiancoding.com/sketch -->
    <title>Villa Icon</title>
    <desc>Created with Sketch.</desc>
    <defs></defs>
    <g id="Page-1" stroke="none" stroke-width="1" fill="none" fill-rule="evenodd">
        <g id="Elitelyfe-|-Home-Page" transform="translate(-385.000000, -1447.000000)" fill="#333333" fill-rule="nonzero">
            <g id="Value-Props" transform="translate(-2.000000, 1079.000000)">
                <g id="Box-Right" transform="translate(347.000000, 307.000000)">
                    <g id="Villa-Icon" transform="translate(40.000000, 60.641096)">
                        <path d="M62.8513182,64.5649394 L62.8513182,42.9651945 L65.5952727,42.9651945 L65.5952727,41.0757176 L62.8513182,41.0757176 L62.8513182,4.63677646 L4.10009091,31.295029 L4.10009091,41.0757176 L1.74636364,41.0757176 L1.74636364,42.9651945 L4.09931818,42.9651945 L4.09931818,64.5649394 L1.74636364,64.5649394 L1.74636364,66.4544163 L67.7426818,66.4544163 L67.7426818,64.5649394 L62.8513182,64.5649394 Z M56.0381818,30.9534116 L47.2306364,30.9534116 L47.2306364,19.8629376 L56.0381818,19.8629376 L56.0381818,30.9534116 Z M45.2988182,17.9734606 L45.2988182,30.9526558 L9.44272727,30.9526558 L14.7714545,28.5348811 L42.4922727,28.5348811 L42.4922727,17.9734606 L38.0483182,17.9734606 L42.0495,16.1580512 L60.9195,16.1580512 L60.9195,30.9526558 L57.97,30.9526558 L57.97,17.9734606 L45.2988182,17.9734606 Z M18.9356818,26.6454041 L33.8840909,19.8629376 L40.5604545,19.8629376 L40.5604545,26.6454041 L18.9356818,26.6454041 Z M60.9195,14.2685742 L46.2137273,14.2685742 L60.9195,7.59569738 L60.9195,14.2685742 Z M6.03190909,32.8428885 L60.9195,32.8428885 L60.9195,41.0757176 L6.03190909,41.0757176 L6.03190909,32.8428885 Z M6.03190909,42.9651945 L60.9195,42.9651945 L60.9195,64.5649394 L57.97,64.5649394 L57.97,46.6133966 L45.2988182,46.6133966 L45.2988182,64.5649394 L6.03190909,64.5649394 L6.03190909,42.9651945 Z M56.0381818,64.5649394 L47.2306364,64.5649394 L47.2306364,48.5028736 L56.0381818,48.5028736 L56.0381818,64.5649394 Z" id="Shape"></path>
                        <path d="M63.7337727,0.528297758 L21.2214091,19.782068 L21.2214091,14.7386761 L13.5930455,14.7386761 L13.5930455,23.2375435 L0.594227273,29.1251537 L1.40636364,30.840043 L64.5459091,2.24318705 L63.7337727,0.528297758 Z M15.5248636,16.6281531 L19.2895909,16.6281531 L19.2895909,20.6572737 L15.5248636,22.3623377 L15.5248636,16.6281531 Z" id="Shape"></path>
                        <path d="M9.56713636,46.6133966 L9.56713636,61.2984116 L42.4922727,61.2984116 L42.4922727,46.6133966 L9.56713636,46.6133966 Z M40.5604545,59.4081788 L11.4989545,59.4081788 L11.4989545,48.5021178 L40.5604545,48.5021178 L40.5604545,59.4081788 Z" id="Shape"></path>
                        <rect id="Rectangle-path" x="25.0232273" y="50.1436954" width="1.93181818" height="7.13164184"></rect>
                        <rect id="Rectangle-path" x="21.046" y="51.5691168" width="1.93181818" height="4.96403387"></rect>
                        <rect id="Rectangle-path" x="29.0004545" y="51.5691168" width="1.93181818" height="4.96403387"></rect>
                    </g>
                </g>
            </g>
        </g>
    </g>
</svg>