<?xml version="1.0" encoding="UTF-8"?>
<svg width="286px" height="111px" viewBox="0 0 286 111" version="1.1" xmlns="http://www.w3.org/2000/svg" xmlns:xlink="http://www.w3.org/1999/xlink">
    <!-- Generator: Sketch 49.3 (51167) - http://www.bohemiancoding.com/sketch -->
    <title>White_Logo_Tagline_smallscale</title>
    <desc>Created with Sketch.</desc>
    <defs></defs>
    <g id="Page-1" stroke="none" stroke-width="1" fill="none" fill-rule="evenodd">
        <g id="Elitelyfe-|-Home-Page" transform="translate(-419.000000, -6032.000000)" fill="#FFFFFF" fill-rule="nonzero">
            <g id="Footer" transform="translate(0.000000, 5900.000000)">
                <g id="White_Logo_Tagline_smallscale" transform="translate(419.000000, 132.000000)">
                    <path d="M19,85.7712921 L19,93 L0,93 L0,92.4744495 L3.08551129,92.4744495 L3.08551129,70.5255505 L0,70.5255505 L0,70 L18.1032733,70 L18.1032733,75.0596178 L17.703121,75.0596178 C17.572951,73.186747 16.5460543,70.5255505 11.4067496,70.5255505 L6.92793707,70.5255505 L6.92793707,80.8454508 L10.1243339,80.8454508 C12.4432885,80.8454508 13.0411063,78.456585 13.3689419,76.0677192 L13.7690941,76.0677192 L13.7690941,86.3493976 L13.3689419,86.3493976 C13.0411063,83.9605318 12.4770363,81.5191109 10.1243339,81.5191109 L6.92793707,81.5191109 L6.92793707,92.5078936 L12.2986552,92.5078936 C17.4379599,92.5078936 18.4696777,89.0918155 18.5998478,85.8190694 L19,85.7712921 Z" id="Shape"></path>
                    <path d="M54,85.7712921 L54,93 L35,93 L35,92.4744495 L38.0910015,92.4744495 L38.0910015,70.5255505 L35,70.5255505 L35,70 L45.0312659,70 L45.0312659,70.5255505 L41.9450941,70.5255505 L41.9450941,92.4744495 L47.6248094,92.4744495 C52.4544992,92.4744495 53.4687341,89.0583714 53.5991357,85.7856253 L54,85.7712921 Z" id="Shape"></path>
                    <polygon id="Shape" points="80 70 80 70.5255505 76.9234473 70.5255505 76.9234473 92.4744495 80 92.4744495 80 93 70 93 70 92.4744495 73.0813674 92.4744495 73.0813674 70.5255505 70 70.5255505 70 70"></polygon>
                    <path d="M113.995529,75.0596178 L113.628941,75.0596178 C113.137176,72.5321978 112.243059,70.5255505 107.785882,70.5255505 L106.279294,70.5255505 L106.279294,92.4744495 L109.136,92.4744495 L109.136,93 L99.8550588,93 L99.8550588,92.4744495 L102.711765,92.4744495 L102.711765,70.5255505 L101.205176,70.5255505 C96.7345882,70.5255505 95.8404706,72.5321978 95.3665882,75.0596178 L95,75.0596178 L95,70 L114,70 L113.995529,75.0596178 Z" id="Shape"></path>
                    <path d="M151,85.7712921 L151,93 L132,93 L132,92.4744495 L135.085511,92.4744495 L135.085511,70.5255505 L132,70.5255505 L132,70 L150.103273,70 L150.103273,75.0596178 L149.707942,75.0596178 C149.572951,73.186747 148.546054,70.5255505 143.40675,70.5255505 L138.932758,70.5255505 L138.932758,80.8454508 L142.114692,80.8454508 C144.433646,80.8454508 145.007359,78.456585 145.364121,76.0677192 L145.764273,76.0677192 L145.764273,86.3493976 L145.364121,86.3493976 C145.031464,83.9605318 144.467394,81.5191109 142.114692,81.5191109 L138.932758,81.5191109 L138.932758,92.5078936 L144.303476,92.5078936 C149.442781,92.5078936 150.469678,89.0918155 150.604669,85.8190694 L151,85.7712921 Z" id="Shape"></path>
                    <path d="M186,85.7712921 L186,93 L167,93 L167,92.4744495 L170.086172,92.4744495 L170.086172,70.5255505 L167,70.5255505 L167,70 L177.031266,70 L177.031266,70.5255505 L173.940264,70.5255505 L173.940264,92.4744495 L179.61998,92.4744495 C184.44967,92.4744495 185.463904,89.0583714 185.599136,85.7856253 L186,85.7712921 Z" id="Shape"></path>
                    <polygon id="Shape" points="217 70 217 70.5255505 215.254078 70.5255505 209.942109 81.6624429 209.942109 92.4744495 212.73122 92.4744495 212.73122 93 203.669883 93 203.669883 92.4744495 206.463359 92.4744495 206.463359 82.0924387 200.35263 70.5255505 198 70.5255505 198 70 206.402251 70 206.402251 70.5255505 204.062715 70.5255505 209.553641 81.0747819 214.599357 70.5255505 211.805881 70.5255505 211.805881 70"></polygon>
                    <path d="M251,75.0596178 L250.621093,75.0596178 C250.49171,73.4160781 249.507475,70.5255505 244.58168,70.5255505 L240.64012,70.5255505 L240.64012,81.5143332 L243.662136,81.5143332 C245.884751,81.5143332 246.434629,79.1254674 246.77657,76.7366016 L247.155477,76.7366016 L247.155477,87.01828 L246.77657,87.01828 C246.457733,84.6294142 245.917097,82.1927711 243.662136,82.1927711 L240.64012,82.1927711 L240.64012,92.4744495 L244.549334,92.4744495 L244.549334,93 L234,93 L234,92.4744495 L236.957325,92.4744495 L236.957325,70.5255505 L234,70.5255505 L234,70 L251,70 L251,75.0596178 Z" id="Shape"></path>
                    <path d="M286,85.7712921 L286,93 L267,93 L267,92.4744495 L270.081472,92.4744495 L270.081472,70.5255505 L267,70.5255505 L267,70 L285.098223,70 L285.098223,75.0596178 L284.69797,75.0596178 C284.567766,73.186747 283.535787,70.5255505 278.395178,70.5255505 L273.920051,70.5255505 L273.920051,80.8454508 L277.102792,80.8454508 C279.427157,80.8454508 279.996193,78.456585 280.353046,76.0677192 L280.758122,76.0677192 L280.758122,86.3493976 L280.357868,86.3493976 C280.025127,83.9605318 279.465736,81.5191109 277.107614,81.5191109 L273.924873,81.5191109 L273.924873,92.5078936 L279.311421,92.5078936 C284.45203,92.5078936 285.479188,89.0918155 285.614213,85.8190694 L286,85.7712921 Z" id="Shape"></path>
                    <polygon id="Shape" points="98 111 98 104 98.8460687 104 98.8460687 110.223744 102 110.223744 102 111"></polygon>
                    <polygon id="Shape" points="109 111 109 104 110 104 110 111"></polygon>
                    <polygon id="Shape" points="119.92339 111 117 104 118.034576 104 120.492881 110.045662 122.965424 104 124 104 121.067119 111"></polygon>
                    <polygon id="Shape" points="129 111 129 104 134 104 134 104.776256 129.950249 104.776256 129.950249 107.031963 133.930348 107.031963 133.930348 107.808219 129.950249 107.808219 129.950249 110.223744 134 110.223744 134 111"></polygon>
                    <polygon id="Shape" points="150 111 150 104 150.845133 104 150.845133 110.223744 154 110.223744 154 111"></polygon>
                    <polygon id="Shape" points="160.596567 110.977169 160.596567 108.041096 158 104 158.957082 104 161 107.255708 163.042918 104 164 104 161.424893 108.041096 161.424893 111"></polygon>
                    <polygon id="Shape" points="171 110.995437 171 104 176 104 176 104.77575 171.935323 104.77575 171.935323 107.029987 175.915423 107.029987 175.915423 107.805737 171.935323 107.805737 171.935323 111"></polygon>
                    <polygon id="Shape" points="182 111 182 104 187 104 187 104.776256 182.950249 104.776256 182.950249 107.031963 186.930348 107.031963 186.930348 107.808219 182.950249 107.808219 182.950249 110.223744 187 110.223744 187 111"></polygon>
                    <path d="M162.740971,24 L150.924229,40.8978199 L163.338057,40.8978199 L173.247829,26.6934597 L178.681771,26.6934597 L165.652343,45.31109 L148.063771,45.31109 L143.5324,38.8185782 L138.982514,45.31109 L121.393943,45.31109 L108.346,26.6934597 L113.7568,26.6934597 L123.666571,40.8978199 L136.066514,40.8978199 L124.268286,24 L103,24 L119.741543,48 L140.533086,48 L143.509257,43.7550711 L146.466914,48 L167.239943,48 L184,24 L162.740971,24 Z M161.722686,38.20891 L156.344286,38.20891 L164.374857,26.6934597 L169.757886,26.6934597 L161.722686,38.20891 Z M122.639029,26.6934597 L130.6696,38.20891 L125.2588,38.20891 L117.228229,26.6934597 L122.639029,26.6934597 Z" id="Shape"></path>
                    <polygon id="Shape" points="123.532308 55 162.467692 55 164 53 122 53"></polygon>
                    <path d="M142.984021,0 L128,21.6548986 L138.582864,36.9728805 L142.984021,30.6450037 L147.385177,37 L158,21.6548986 L142.984021,0 Z M145.522447,21.6503787 L142.984021,25.3115075 L140.441029,21.636819 L142.984021,17.9711703 L145.522447,21.6503787 Z M144.417592,27.9330564 L148.805053,21.6594185 L142.984021,13.2659419 L137.162989,21.6594185 L141.550449,27.9872954 L138.591995,32.2540924 L131.246081,21.6458588 L142.984021,4.74138774 L154.726526,21.636819 L147.366915,32.272172 L144.417592,27.9330564 Z" id="Shape"></path>
                </g>
            </g>
        </g>
    </g>
</svg>