<svg xmlns="http://www.w3.org/2000/svg" viewBox="0 0 642.99 206.82"><defs><style>.cls-1{fill:#fff;}</style></defs><title>White_Logo_Trademark</title><g id="Layer_2" data-name="Layer 2"><g id="White"><path class="cls-1" d="M39.41,191.69v15.13H0v-1.1H6.4V159.78H0v-1.1H37.55v10.59h-.83c-.27-3.92-2.4-9.49-13.06-9.49H14.37v21.59H21c4.81,0,6.05-5,6.73-10h.83v21.53h-.83c-.68-5-1.85-10.11-6.73-10.11H14.37v23H25.51c10.66,0,12.8-7.15,13.07-14Z"/><path class="cls-1" d="M114.5,191.69v15.13H75.16v-1.1h6.4V159.78h-6.4v-1.1H95.93v1.1H89.54v45.94H101.3c10,0,12.1-7.15,12.37-14Z"/><path class="cls-1" d="M171.23,158.68v1.1h-6.39v45.94h6.39v1.1H150.46v-1.1h6.4V159.78h-6.4v-1.1Z"/><path class="cls-1" d="M249.49,169.27h-.82c-1.1-5.3-3.1-9.49-13.07-9.49h-3.37v45.94h6.39v1.1H217.86v-1.1h6.39V159.78h-3.37c-10,0-12,4.19-13.06,9.49H207V158.68h42.5Z"/><path class="cls-1" d="M325.34,191.69v15.13H285.93v-1.1h6.4V159.78h-6.4v-1.1h37.55v10.59h-.82c-.28-3.92-2.41-9.49-13.07-9.49h-9.28v21.59h6.6c4.81,0,6-5,6.74-10h.83v21.53h-.83c-.69-5-1.86-10.11-6.74-10.11h-6.6v23h11.14c10.66,0,12.79-7.15,13.07-14Z"/><path class="cls-1" d="M400.44,191.69v15.13H361.1v-1.1h6.39V159.78H361.1v-1.1h20.77v1.1h-6.4v45.94h11.76c10,0,12.1-7.15,12.38-14Z"/><path class="cls-1" d="M473.33,158.68v1.1h-4l-12.17,23.31v22.63h6.39v1.1H442.79v-1.1h6.4V184l-14-24.21H429.8v-1.1h19.25v1.1h-5.36l12.58,22.07,11.56-22.07h-6.4v-1.1Z"/><path class="cls-1" d="M544.5,169.27h-.82c-.28-3.44-2.41-9.49-13.07-9.49h-8.53v23h6.54c4.81,0,6-5,6.74-10h.82V194.3h-.82c-.69-5-1.86-10.11-6.74-10.11h-6.54v21.53h8.46v1.1H507.71v-1.1h6.4V159.78h-6.4v-1.1H544.5Z"/><path class="cls-1" d="M619.87,191.69v15.13h-39.4v-1.1h6.39V159.78h-6.39v-1.1H618v10.59h-.83c-.27-3.92-2.41-9.49-13.07-9.49h-9.28v21.59h6.6c4.82,0,6-5,6.74-10H609v21.53h-.83c-.69-5-1.85-10.11-6.74-10.11h-6.6v23H606c10.66,0,12.79-7.15,13.07-14Z"/><path class="cls-1" d="M351.27,51.74,324.18,91.13h29.4L375.13,59.7h9.4l-26.9,39.2H320.34L310,83.77,299.53,98.9H262.3L235.36,59.7h9.35l21.55,31.44,29.41,0-27-39.37H219.94l37.78,55.11H304L310,98.22l5.9,8.63h46.25l37.83-55.11Zm-2.22,31.44h-9.28l16.1-23.48h9.28ZM264,59.7l16.1,23.48h-9.34L254.68,59.7Z"/><polygon class="cls-1" points="356.65 115.13 263.24 115.13 267.99 122.09 351.89 122.09 356.65 115.13"/><path class="cls-1" d="M300.2,83.24l9.7-14.13,9.71,14.15,23.7-34.57L309.9,0,276.56,48.68Zm4.4-34.57L309.9,41l5.3,7.72-5.3,7.74Zm30,0-15,21.91-5.3-7.88,9.68-14L309.9,28.23l-14,20.46,9.67,14.07-5.31,7.74-15-21.84L309.9,12.77Z"/><path class="cls-1" d="M632.9,164.45V159h-2.06v-.73h4.94V159h-2.06v5.5Z"/><path class="cls-1" d="M637,164.45v-6.23h1.24l1.48,4.41.29.92c.07-.23.18-.56.33-1l1.5-4.33H643v6.23h-.8v-5.22l-1.81,5.22h-.75l-1.8-5.31v5.31Z"/></g></g></svg>