<?xml version="1.0" encoding="UTF-8"?>
<svg width="494px" height="39px" viewBox="0 0 494 39" version="1.1" xmlns="http://www.w3.org/2000/svg" xmlns:xlink="http://www.w3.org/1999/xlink">
    <!-- Generator: Sketch 49.3 (51167) - http://www.bohemiancoding.com/sketch -->
    <title>White_Wordmark_Trademark</title>
    <desc>Created with Sketch.</desc>
    <defs></defs>
    <g id="Page-1" stroke="none" stroke-width="1" fill="none" fill-rule="evenodd">
        <g id="Elitelyfe-|-Home-Page" transform="translate(-713.000000, -20.000000)" fill="#FFFFFF" fill-rule="nonzero">
            <g id="Header-Nav" transform="translate(0.000000, -1.000000)">
                <g id="White_Wordmark_Trademark" transform="translate(713.000000, 21.000000)">
                    <path d="M31.3671429,26.432449 L31.3671429,38.4746939 L0,38.4746939 L0,37.5991837 L5.09387755,37.5991837 L5.09387755,1.03469388 L0,1.03469388 L0,0.159183673 L29.8867347,0.159183673 L29.8867347,8.58795918 L29.2261224,8.58795918 C29.0112245,5.46795918 27.3159184,1.03469388 18.8314286,1.03469388 L11.4373469,1.03469388 L11.4373469,18.2265306 L16.7142857,18.2265306 C20.5426531,18.2265306 21.5295918,14.2469388 22.0708163,10.2673469 L22.7314286,10.2673469 L22.7314286,27.3636735 L22.0708163,27.3636735 C21.5295918,23.3840816 20.5983673,19.3169388 16.7142857,19.3169388 L11.4373469,19.3169388 L11.4373469,37.6230612 L20.3038776,37.6230612 C28.7883673,37.6230612 30.4916327,31.9322449 30.7065306,26.4802041 L31.3671429,26.432449 Z" id="Shape"></path>
                    <path d="M91.1326531,26.432449 L91.1326531,38.4746939 L59.8212245,38.4746939 L59.8212245,37.5991837 L64.915102,37.5991837 L64.915102,1.03469388 L59.8212245,1.03469388 L59.8212245,0.159183673 L76.352449,0.159183673 L76.352449,1.03469388 L71.2665306,1.03469388 L71.2665306,37.5991837 L80.6265306,37.5991837 C88.5857143,37.5991837 90.2571429,31.9083673 90.4720408,26.4563265 L91.1326531,26.432449 Z" id="Shape"></path>
                    <polygon id="Shape" points="136.285102 0.159183673 136.285102 1.03469388 131.199184 1.03469388 131.199184 37.5991837 136.285102 37.5991837 136.285102 38.4746939 119.753878 38.4746939 119.753878 37.5991837 124.847755 37.5991837 124.847755 1.03469388 119.753878 1.03469388 119.753878 0.159183673"></polygon>
                    <path d="M198.573673,8.58795918 L197.92102,8.58795918 C197.04551,4.37755102 195.453673,1.03469388 187.518367,1.03469388 L184.836122,1.03469388 L184.836122,37.5991837 L189.922041,37.5991837 L189.922041,38.4746939 L173.398776,38.4746939 L173.398776,37.5991837 L178.484694,37.5991837 L178.484694,1.03469388 L175.802449,1.03469388 C167.843265,1.03469388 166.251429,4.37755102 165.407755,8.58795918 L164.755102,8.58795918 L164.755102,0.159183673 L198.581633,0.159183673 L198.573673,8.58795918 Z" id="Shape"></path>
                    <path d="M258.944082,26.432449 L258.944082,38.4746939 L227.576939,38.4746939 L227.576939,37.5991837 L232.670816,37.5991837 L232.670816,1.03469388 L227.576939,1.03469388 L227.576939,0.159183673 L257.463673,0.159183673 L257.463673,8.58795918 L256.81102,8.58795918 C256.588163,5.46795918 254.892857,1.03469388 246.408367,1.03469388 L239.022245,1.03469388 L239.022245,18.2265306 L244.275306,18.2265306 C248.103673,18.2265306 249.050816,14.2469388 249.639796,10.2673469 L250.300408,10.2673469 L250.300408,27.3636735 L249.639796,27.3636735 C249.090612,23.3840816 248.159388,19.3169388 244.275306,19.3169388 L239.022245,19.3169388 L239.022245,37.6230612 L247.888776,37.6230612 C256.373265,37.6230612 258.068571,31.9322449 258.291429,26.4802041 L258.944082,26.432449 Z" id="Shape"></path>
                    <path d="M318.717551,26.432449 L318.717551,38.4746939 L287.406122,38.4746939 L287.406122,37.5991837 L292.492041,37.5991837 L292.492041,1.03469388 L287.406122,1.03469388 L287.406122,0.159183673 L303.937347,0.159183673 L303.937347,1.03469388 L298.843469,1.03469388 L298.843469,37.5991837 L308.203469,37.5991837 C316.162653,37.5991837 317.834082,31.9083673 318.056939,26.4563265 L318.717551,26.432449 Z" id="Shape"></path>
                    <polygon id="Shape" points="376.732041 0.159183673 376.732041 1.03469388 373.548367 1.03469388 363.87 19.5955102 363.87 37.5991837 368.955918 37.5991837 368.955918 38.4746939 352.424694 38.4746939 352.424694 37.5991837 357.518571 37.5991837 357.518571 20.3038776 346.375714 1.03469388 342.085714 1.03469388 342.085714 0.159183673 357.407143 0.159183673 357.407143 1.03469388 353.14102 1.03469388 363.153673 18.6085714 372.35449 1.03469388 367.260612 1.03469388 367.260612 0.159183673"></polygon>
                    <path d="M433.377551,8.58795918 L432.724898,8.58795918 C432.502041,5.85 430.806735,1.03469388 422.322245,1.03469388 L415.533061,1.03469388 L415.533061,19.3408163 L420.738367,19.3408163 C424.566735,19.3408163 425.513878,15.3612245 426.102857,11.3816327 L426.75551,11.3816327 L426.75551,28.5177551 L426.102857,28.5177551 C425.553673,24.5381633 424.622449,20.4710204 420.738367,20.4710204 L415.533061,20.4710204 L415.533061,37.5991837 L422.266531,37.5991837 L422.266531,38.4746939 L404.095714,38.4746939 L404.095714,37.5991837 L409.189592,37.5991837 L409.189592,1.03469388 L404.095714,1.03469388 L404.095714,0.159183673 L433.377551,0.159183673 L433.377551,8.58795918 Z" id="Shape"></path>
                    <path d="M493.365918,26.432449 L493.365918,38.4746939 L462.006735,38.4746939 L462.006735,37.5991837 L467.092653,37.5991837 L467.092653,1.03469388 L462.006735,1.03469388 L462.006735,0.159183673 L491.877551,0.159183673 L491.877551,8.58795918 L491.216939,8.58795918 C491.002041,5.46795918 489.298776,1.03469388 480.814286,1.03469388 L473.428163,1.03469388 L473.428163,18.2265306 L478.681224,18.2265306 C482.517551,18.2265306 483.456735,14.2469388 484.045714,10.2673469 L484.714286,10.2673469 L484.714286,27.3636735 L484.053673,27.3636735 C483.50449,23.3840816 482.581224,19.3169388 478.689184,19.3169388 L473.436122,19.3169388 L473.436122,37.6230612 L482.326531,37.6230612 C490.81102,37.6230612 492.506327,31.9322449 492.729184,26.4802041 L493.365918,26.432449 Z" id="Shape"></path>
                </g>
            </g>
        </g>
    </g>
</svg>