<?xml version="1.0" encoding="UTF-8"?>
<svg width="35px" height="25px" viewBox="0 0 35 25" version="1.1" xmlns="http://www.w3.org/2000/svg" xmlns:xlink="http://www.w3.org/1999/xlink">
    <!-- Generator: Sketch 49.3 (51167) - http://www.bohemiancoding.com/sketch -->
    <title>Concierge icon</title>
    <desc>Created with Sketch.</desc>
    <defs></defs>
    <g id="Page-1" stroke="none" stroke-width="1" fill="none" fill-rule="evenodd">
        <g id="Mobile-|-Expanded" transform="translate(-37.000000, -998.000000)" fill="#333333" fill-rule="nonzero">
            <g id="Value-Props" transform="translate(22.000000, 665.000000)">
                <g id="Group-4-Copy-2" transform="translate(0.000000, 13.000000)">
                    <g id="Platinum-COncierge" transform="translate(0.000000, 300.000000)">
                        <g id="Concierge-icon" transform="translate(15.000000, 20.000000)">
                            <path d="M6.55344388,9.58241096 C9.21449708,6.91154795 12.7351895,5.32356164 16.4939359,5.10978082 L17.3716727,5.06017808 L18.2494096,5.10978082 C22.008156,5.32286301 25.5295445,6.91154795 28.1899016,9.58241096 C30.8370335,12.24 32.40457,15.7331507 32.6398397,19.4554521 L2.10350583,19.4554521 C2.33877551,15.7331507 3.90631195,12.24 6.55344388,9.58241096 Z M13.9929774,6.88150685 C9.22633017,8.19912329 5.43278061,11.9004658 3.97939869,16.6427671 L3.72394315,17.4769315 L5.38753644,17.9904247 L5.64299198,17.1555616 C6.92235787,12.9826438 10.2627697,9.72423288 14.4572522,8.56380822 L15.2953134,8.33116438 L14.8317347,6.64886301 L13.9929774,6.88150685 Z M34.803207,22.6929041 L0,22.6929041 L0,24.6770137 L34.803207,24.6770137 L34.803207,22.6929041 Z M16.3825656,3.13684932 C12.0071064,3.38486301 8.06738338,5.2669726 5.15992347,8.18515068 C2.03529155,11.3213014 0.101625364,15.6549041 0.101625364,20.4412192 L0.101625364,21.433274 L34.6396319,21.433274 L34.6396319,20.4412192 C34.6396319,15.6549041 32.7059657,11.3213014 29.5813338,8.18515068 C26.6738739,5.2669726 22.7341509,3.38486301 18.3586917,3.13684932 L18.3586917,2.45847945 L21.0350583,2.45847945 L21.0350583,0.473671233 L13.7055029,0.473671233 L13.7055029,2.45847945 L16.3818695,2.45847945 L16.3818695,3.13684932 L16.3825656,3.13684932 Z" id="Shape"></path>
                        </g>
                    </g>
                </g>
            </g>
        </g>
    </g>
</svg>