<?xml version="1.0" encoding="UTF-8"?>
<svg width="48px" height="50px" viewBox="0 0 48 50" version="1.1" xmlns="http://www.w3.org/2000/svg" xmlns:xlink="http://www.w3.org/1999/xlink">
    <!-- Generator: Sketch 49.3 (51167) - http://www.bohemiancoding.com/sketch -->
    <title>Itinerary Icon</title>
    <desc>Created with Sketch.</desc>
    <defs></defs>
    <g id="Page-1" stroke="none" stroke-width="1" fill="none" fill-rule="evenodd">
        <g id="Tablet-|-Drawer-Menu" transform="translate(-642.000000, -1178.000000)" fill="#333333" fill-rule="nonzero">
            <g id="Box-Left" transform="translate(607.000000, 1101.000000)">
                <g id="Itinerary-Icon" transform="translate(35.173469, 77.268493)">
                    <path d="M14.4243326,44.9989946 C14.9100085,44.9989946 15.3956844,44.7288871 15.6115403,44.2426935 L27.1598334,21.1214899 C28.1311851,19.2307373 28.616861,17.1779202 28.670825,15.01706 C28.670825,14.909017 28.724789,14.800974 28.724789,14.692931 C28.724789,6.85981296 22.3030746,0.431254013 14.4243326,0.431254013 C6.59955457,0.431254013 0.177840187,6.85981296 0.177840187,14.692931 C0.177840187,14.800974 0.177840187,14.909017 0.231804174,15.01706 C0.28576816,17.1779202 0.771444038,19.2307373 1.68883181,21.0674684 L13.2371249,44.188672 C13.4529808,44.7288871 13.9386567,44.9989946 14.4243326,44.9989946 Z M4.11721119,19.8789954 C3.3077514,18.3123717 2.93000349,16.5296621 2.93000349,14.692931 C2.93000349,14.584888 2.93000349,14.476845 2.87603951,14.4228235 C3.03793147,8.15632905 8.16451018,3.1323292 14.4243326,3.1323292 C20.684155,3.1323292 25.8646977,8.15632905 25.9726257,14.4228235 C25.9726257,14.5308665 25.9186617,14.6389095 25.9186617,14.692931 C25.9186617,16.5296621 25.5409138,18.2583502 24.731454,19.8789954 L14.4243326,40.6232528 L4.11721119,19.8789954 Z" id="Shape"></path>
                    <path d="M22.2276786,14.5489726 C22.2276786,10.2993741 18.778556,6.84657534 14.5334821,6.84657534 C10.2884083,6.84657534 6.83928571,10.2993741 6.83928571,14.5489726 C6.83928571,18.7985711 10.2884083,22.2513699 14.5334821,22.2513699 C18.778556,22.2513699 22.2276786,18.7985711 22.2276786,14.5489726 Z M14.5334821,19.5953708 C11.7741841,19.5953708 9.4924569,17.3112116 9.4924569,14.5489726 C9.4924569,11.7867336 11.7741841,9.5025744 14.5334821,9.5025744 C17.2927802,9.5025744 19.5745074,11.7867336 19.5745074,14.5489726 C19.5745074,17.3112116 17.3458436,19.5953708 14.5334821,19.5953708 Z" id="Shape"></path>
                    <path d="M42.2157856,25.8247731 C42.9712814,25.8247731 43.5648853,25.1765151 43.5109213,24.420214 C43.5109213,23.663913 42.8633534,23.0696764 42.1078576,23.1236979 C41.6221817,23.1236979 30.0199247,23.6098915 30.0199247,31.2269235 C30.0199247,34.7383212 33.4736198,36.6830954 36.2797471,38.1956975 C38.0605586,39.1680846 40.1111901,40.3025361 40.1111901,41.3289447 C40.1111901,41.4910092 40.0572261,41.7070952 39.7334422,42.0852458 C36.765423,45.0564285 22.6808225,46.1368585 14.4782966,46.082837 C13.7228008,46.082837 13.1291969,46.6770736 13.1291969,47.4333746 C13.1291969,48.1896757 13.7228008,48.7839122 14.4782966,48.7839122 C14.5322606,48.7839122 14.6401885,48.7839122 14.6941525,48.7839122 C17.8240637,48.7839122 37.0352429,48.5678262 41.6221817,44.0300199 C42.5935335,43.0576328 42.8093894,42.0312242 42.8093894,41.3829662 C42.8093894,38.7359125 40.1651541,37.2773319 37.5748828,35.8727728 C35.2004674,34.5762567 32.718124,33.1716976 32.718124,31.280945 C32.718124,26.2029237 42.1078576,25.8247731 42.2157856,25.8247731 Z" id="Shape"></path>
                    <path d="M42.2697496,5.83340439 C39.3017303,5.83340439 36.8733509,8.26437205 36.8733509,11.2355548 C36.8733509,11.2895763 36.8733509,11.3435978 36.8733509,11.4516408 C36.8733509,12.2619633 37.0892069,12.9642429 37.4129908,13.6665224 L41.0825419,20.9054039 C41.2983978,21.337576 41.7840737,21.661705 42.2697496,21.661705 C42.7554255,21.661705 43.2411013,21.3915975 43.4569573,20.9054039 L47.0725444,13.6665224 C47.3963283,12.9642429 47.6121842,12.2079418 47.6121842,11.4516408 C47.6121842,11.3976193 47.6121842,11.3435978 47.6121842,11.2355548 C47.6661482,8.26437205 45.2377688,5.83340439 42.2697496,5.83340439 Z M44.9679489,11.2355548 C44.9679489,11.6677268 44.8600209,12.0458773 44.698129,12.4240278 L42.2697496,17.2319417 L39.8953342,12.4780493 C39.7334422,12.0998988 39.6255142,11.7217483 39.6255142,11.2895763 C39.6255142,11.2355548 39.6255142,11.1815333 39.6255142,11.1275118 C39.6794782,9.72295265 40.8666859,8.58850108 42.3237136,8.58850108 C43.7807412,8.58850108 44.9679489,9.72295265 45.0219129,11.1275118 C44.9679489,11.1815333 44.9679489,11.1815333 44.9679489,11.2355548 Z" id="Shape"></path>
                </g>
            </g>
        </g>
    </g>
</svg>