<?xml version="1.0" encoding="UTF-8"?>
<svg width="14px" height="16px" viewBox="0 0 14 16" version="1.1" xmlns="http://www.w3.org/2000/svg" xmlns:xlink="http://www.w3.org/1999/xlink">
    <!-- Generator: Sketch 49.3 (51167) - http://www.bohemiancoding.com/sketch -->
    <title>person</title>
    <desc>Created with Sketch.</desc>
    <defs></defs>
    <g id="Page-1" stroke="none" stroke-width="1" fill="none" fill-rule="evenodd">
        <g id="Mobile-|-Expanded" transform="translate(-98.000000, -2260.000000)" fill="#666666" fill-rule="nonzero" stroke="#666666" stroke-width="0.5">
            <g id="Property-Card-3" transform="translate(22.000000, 2020.000000)">
                <g id="Amenities-Copy-2" transform="translate(56.000000, 237.000000)">
                    <g id="Group-3">
                        <g id="person" transform="translate(20.000000, 4.000000)">
                            <path d="M6.92354146,7.36842105 C4.98134905,7.36842105 3.40119395,5.77097039 3.40119395,3.80725741 C3.40119395,1.84354443 4.98134905,0.246093768 6.92354146,0.246093768 C8.86573387,0.246093768 10.4455331,1.84354443 10.4455331,3.80725741 C10.4455331,5.77097039 8.86573387,7.36842105 6.92354146,7.36842105 Z M6.92354146,0.982935874 C5.38305928,0.982935874 4.12989416,2.24992291 4.12989416,3.80725741 C4.12989416,5.36459192 5.38305928,6.63157895 6.92354146,6.63157895 C8.46366785,6.63157895 9.71683293,5.36459192 9.71683293,3.80725741 C9.71683293,2.24992291 8.46366785,0.982935874 6.92354146,0.982935874 Z M10.5860783,13.7423931 C10.7807068,13.6909437 10.8974127,13.4894634 10.8465318,13.2926604 L10.4337914,11.6966489 C10.3825547,11.4998458 10.1836565,11.3839947 9.98902811,11.4332854 C9.79439968,11.4847348 9.67769379,11.686215 9.7285747,11.8830181 L10.141315,13.4790296 C10.1843682,13.6445312 10.3320296,13.754266 10.4935676,13.754266 C10.5241673,13.754266 10.5551228,13.7503084 10.5860783,13.7423931 Z M3.70381091,13.4793894 L4.11637334,11.8830181 C4.16725425,11.6862151 4.05072627,11.4847348 3.85609784,11.4332854 C3.65969037,11.3825555 3.46221545,11.5002056 3.41151246,11.6966489 L2.99895002,13.2930202 C2.94806911,13.4898232 3.06459709,13.6913035 3.25922552,13.7427529 C3.29018103,13.7506682 3.32113658,13.7546259 3.35155839,13.7546259 C3.51345222,13.7546258 3.66111363,13.644891 3.70381091,13.4793894 Z M13.3539294,13.7355572 C13.5446439,13.6715152 13.647829,13.4628392 13.5841388,13.2696341 L12.2551861,9.23822988 C12.0687413,8.67228622 11.4603051,8.22902964 10.8703711,8.22902964 L2.97493283,8.22902964 C2.38482087,8.22902964 1.77656257,8.67228622 1.5899399,9.23822988 L0.260809199,13.269634 C0.197119089,13.4628392 0.300304167,13.6715152 0.491196586,13.7355571 C0.682444792,13.8006784 0.888459161,13.6956209 0.952149271,13.5027755 L2.28127993,9.47137129 C2.36845354,9.20692846 2.69917955,8.96587171 2.97493279,8.96587171 L10.870371,8.96587171 C11.1461243,8.96587171 11.4766724,9.20692846 11.5642018,9.47137129 L12.8931546,13.5027755 C12.9440355,13.6571238 13.0860039,13.7546258 13.2386467,13.7546258 C13.2767184,13.7546258 13.3155018,13.7485095 13.3539294,13.7355572 Z" id="Shape"></path>
                        </g>
                    </g>
                </g>
            </g>
        </g>
    </g>
</svg>