<?xml version="1.0" encoding="UTF-8"?>
<svg width="34px" height="34px" viewBox="0 0 34 34" version="1.1" xmlns="http://www.w3.org/2000/svg" xmlns:xlink="http://www.w3.org/1999/xlink">
    <!-- Generator: Sketch 49.3 (51167) - http://www.bohemiancoding.com/sketch -->
    <title>Villa Icon Copy</title>
    <desc>Created with Sketch.</desc>
    <defs></defs>
    <g id="Page-1" stroke="none" stroke-width="1" fill="none" fill-rule="evenodd">
        <g id="Mobile-|-Expanded" transform="translate(-38.000000, -678.000000)" fill="#333333" fill-rule="nonzero">
            <g id="Value-Props" transform="translate(22.000000, 665.000000)">
                <g id="Group-2">
                    <g id="Villa-Icon-Copy" transform="translate(16.000000, 13.000000)">
                        <path d="M31.4256591,32.7642976 L31.4256591,21.803233 L32.7976364,21.803233 L32.7976364,20.844394 L31.4256591,20.844394 L31.4256591,2.35299104 L2.05004545,15.8810595 L2.05004545,20.844394 L0.873181818,20.844394 L0.873181818,21.803233 L2.04965909,21.803233 L2.04965909,32.7642976 L0.873181818,32.7642976 L0.873181818,33.7231366 L33.8713409,33.7231366 L33.8713409,32.7642976 L31.4256591,32.7642976 Z M28.0190909,15.7077014 L23.6153182,15.7077014 L23.6153182,10.0796997 L28.0190909,10.0796997 L28.0190909,15.7077014 Z M22.6494091,9.12086063 L22.6494091,15.7073179 L4.72136364,15.7073179 L7.38572727,14.4803874 L21.2461364,14.4803874 L21.2461364,9.12086063 L19.0241591,9.12086063 L21.02475,8.19960806 L30.45975,8.19960806 L30.45975,15.7073179 L28.985,15.7073179 L28.985,9.12086063 L22.6494091,9.12086063 Z M9.46784091,13.5215484 L16.9420455,10.0796997 L20.2802273,10.0796997 L20.2802273,13.5215484 L9.46784091,13.5215484 Z M30.45975,7.24076901 L23.1068636,7.24076901 L30.45975,3.854533 L30.45975,7.24076901 Z M3.01595455,16.6665405 L30.45975,16.6665405 L30.45975,20.844394 L3.01595455,20.844394 L3.01595455,16.6665405 Z M3.01595455,21.803233 L30.45975,21.803233 L30.45975,32.7642976 L28.985,32.7642976 L28.985,23.6545595 L22.6494091,23.6545595 L22.6494091,32.7642976 L3.01595455,32.7642976 L3.01595455,21.803233 Z M28.0190909,32.7642976 L23.6153182,32.7642976 L23.6153182,24.6133985 L28.0190909,24.6133985 L28.0190909,32.7642976 Z" id="Shape"></path>
                        <path d="M31.8668864,0.2680914 L10.6107045,10.0386614 L10.6107045,7.47932816 L6.79652273,7.47932816 L6.79652273,11.7921862 L0.297113636,14.7799287 L0.703181818,15.6501711 L32.2729545,1.13833373 L31.8668864,0.2680914 Z M7.76243182,8.43816722 L9.64479545,8.43816722 L9.64479545,10.4827956 L7.76243182,11.348052 L7.76243182,8.43816722 Z" id="Shape"></path>
                        <path d="M4.78356818,23.6545595 L4.78356818,31.1066566 L21.2461364,31.1066566 L21.2461364,23.6545595 L4.78356818,23.6545595 Z M20.2802273,30.147434 L5.74947727,30.147434 L5.74947727,24.613015 L20.2802273,24.613015 L20.2802273,30.147434 Z" id="Shape"></path>
                        <rect id="Rectangle-path" x="12.5116136" y="25.4460544" width="1" height="3.61904213"></rect>
                        <rect id="Rectangle-path" x="10.523" y="26.1694026" width="1" height="2.51906197"></rect>
                        <rect id="Rectangle-path" x="14.5002273" y="26.1694026" width="1" height="2.51906197"></rect>
                    </g>
                </g>
            </g>
        </g>
    </g>
</svg>