<?xml version="1.0" encoding="UTF-8"?>
<svg width="254px" height="20px" viewBox="0 0 254 20" version="1.1" xmlns="http://www.w3.org/2000/svg" xmlns:xlink="http://www.w3.org/1999/xlink">
    <!-- Generator: Sketch 49.3 (51167) - http://www.bohemiancoding.com/sketch -->
    <title>White_Wordmark_Trademark</title>
    <desc>Created with Sketch.</desc>
    <defs></defs>
    <g id="Page-1" stroke="none" stroke-width="1" fill="none" fill-rule="evenodd">
        <g id="Tablet-|-Drawer-Menu" transform="translate(-258.000000, -38.000000)" fill="#FFFFFF" fill-rule="nonzero">
            <g id="Header-Nav-Copy-2" style="mix-blend-mode: multiply;" transform="translate(-1.000000, -1.000000)">
                <g id="White_Wordmark_Trademark" transform="translate(259.000000, 39.000000)">
                    <path d="M16.0857143,13.555102 L16.0857143,19.7306122 L0,19.7306122 L0,19.2816327 L2.6122449,19.2816327 L2.6122449,0.530612245 L0,0.530612245 L0,0.0816326531 L15.3265306,0.0816326531 L15.3265306,4.40408163 L14.9877551,4.40408163 C14.877551,2.80408163 14.0081633,0.530612245 9.65714286,0.530612245 L5.86530612,0.530612245 L5.86530612,9.34693878 L8.57142857,9.34693878 C10.5346939,9.34693878 11.0408163,7.30612245 11.3183673,5.26530612 L11.6571429,5.26530612 L11.6571429,14.0326531 L11.3183673,14.0326531 C11.0408163,11.9918367 10.5632653,9.90612245 8.57142857,9.90612245 L5.86530612,9.90612245 L5.86530612,19.2938776 L10.4122449,19.2938776 C14.7632653,19.2938776 15.6367347,16.3755102 15.7469388,13.5795918 L16.0857143,13.555102 Z" id="Shape"></path>
                    <path d="M46.7346939,13.555102 L46.7346939,19.7306122 L30.677551,19.7306122 L30.677551,19.2816327 L33.2897959,19.2816327 L33.2897959,0.530612245 L30.677551,0.530612245 L30.677551,0.0816326531 L39.155102,0.0816326531 L39.155102,0.530612245 L36.5469388,0.530612245 L36.5469388,19.2816327 L41.3469388,19.2816327 C45.4285714,19.2816327 46.2857143,16.3632653 46.3959184,13.5673469 L46.7346939,13.555102 Z" id="Shape"></path>
                    <polygon id="Shape" points="69.8897959 0.0816326531 69.8897959 0.530612245 67.2816327 0.530612245 67.2816327 19.2816327 69.8897959 19.2816327 69.8897959 19.7306122 61.4122449 19.7306122 61.4122449 19.2816327 64.0244898 19.2816327 64.0244898 0.530612245 61.4122449 0.530612245 61.4122449 0.0816326531"></polygon>
                    <path d="M101.832653,4.40408163 L101.497959,4.40408163 C101.04898,2.24489796 100.232653,0.530612245 96.1632653,0.530612245 L94.7877551,0.530612245 L94.7877551,19.2816327 L97.3959184,19.2816327 L97.3959184,19.7306122 L88.922449,19.7306122 L88.922449,19.2816327 L91.5306122,19.2816327 L91.5306122,0.530612245 L90.155102,0.530612245 C86.0734694,0.530612245 85.2571429,2.24489796 84.8244898,4.40408163 L84.4897959,4.40408163 L84.4897959,0.0816326531 L101.836735,0.0816326531 L101.832653,4.40408163 Z" id="Shape"></path>
                    <path d="M132.791837,13.555102 L132.791837,19.7306122 L116.706122,19.7306122 L116.706122,19.2816327 L119.318367,19.2816327 L119.318367,0.530612245 L116.706122,0.530612245 L116.706122,0.0816326531 L132.032653,0.0816326531 L132.032653,4.40408163 L131.697959,4.40408163 C131.583673,2.80408163 130.714286,0.530612245 126.363265,0.530612245 L122.57551,0.530612245 L122.57551,9.34693878 L125.269388,9.34693878 C127.232653,9.34693878 127.718367,7.30612245 128.020408,5.26530612 L128.359184,5.26530612 L128.359184,14.0326531 L128.020408,14.0326531 C127.738776,11.9918367 127.261224,9.90612245 125.269388,9.90612245 L122.57551,9.90612245 L122.57551,19.2938776 L127.122449,19.2938776 C131.473469,19.2938776 132.342857,16.3755102 132.457143,13.5795918 L132.791837,13.555102 Z" id="Shape"></path>
                    <path d="M163.444898,13.555102 L163.444898,19.7306122 L147.387755,19.7306122 L147.387755,19.2816327 L149.995918,19.2816327 L149.995918,0.530612245 L147.387755,0.530612245 L147.387755,0.0816326531 L155.865306,0.0816326531 L155.865306,0.530612245 L153.253061,0.530612245 L153.253061,19.2816327 L158.053061,19.2816327 C162.134694,19.2816327 162.991837,16.3632653 163.106122,13.5673469 L163.444898,13.555102 Z" id="Shape"></path>
                    <polygon id="Shape" points="193.195918 0.0816326531 193.195918 0.530612245 191.563265 0.530612245 186.6 10.0489796 186.6 19.2816327 189.208163 19.2816327 189.208163 19.7306122 180.730612 19.7306122 180.730612 19.2816327 183.342857 19.2816327 183.342857 10.4122449 177.628571 0.530612245 175.428571 0.530612245 175.428571 0.0816326531 183.285714 0.0816326531 183.285714 0.530612245 181.097959 0.530612245 186.232653 9.54285714 190.95102 0.530612245 188.338776 0.530612245 188.338776 0.0816326531"></polygon>
                    <path d="M222.244898,4.40408163 L221.910204,4.40408163 C221.795918,3 220.926531,0.530612245 216.57551,0.530612245 L213.093878,0.530612245 L213.093878,9.91836735 L215.763265,9.91836735 C217.726531,9.91836735 218.212245,7.87755102 218.514286,5.83673469 L218.84898,5.83673469 L218.84898,14.6244898 L218.514286,14.6244898 C218.232653,12.5836735 217.755102,10.4979592 215.763265,10.4979592 L213.093878,10.4979592 L213.093878,19.2816327 L216.546939,19.2816327 L216.546939,19.7306122 L207.228571,19.7306122 L207.228571,19.2816327 L209.840816,19.2816327 L209.840816,0.530612245 L207.228571,0.530612245 L207.228571,0.0816326531 L222.244898,0.0816326531 L222.244898,4.40408163 Z" id="Shape"></path>
                    <path d="M253.008163,13.555102 L253.008163,19.7306122 L236.926531,19.7306122 L236.926531,19.2816327 L239.534694,19.2816327 L239.534694,0.530612245 L236.926531,0.530612245 L236.926531,0.0816326531 L252.244898,0.0816326531 L252.244898,4.40408163 L251.906122,4.40408163 C251.795918,2.80408163 250.922449,0.530612245 246.571429,0.530612245 L242.783673,0.530612245 L242.783673,9.34693878 L245.477551,9.34693878 C247.444898,9.34693878 247.926531,7.30612245 248.228571,5.26530612 L248.571429,5.26530612 L248.571429,14.0326531 L248.232653,14.0326531 C247.95102,11.9918367 247.477551,9.90612245 245.481633,9.90612245 L242.787755,9.90612245 L242.787755,19.2938776 L247.346939,19.2938776 C251.697959,19.2938776 252.567347,16.3755102 252.681633,13.5795918 L253.008163,13.555102 Z" id="Shape"></path>
                </g>
            </g>
        </g>
    </g>
</svg>