<?xml version="1.0" encoding="UTF-8"?>
<svg width="680px" height="800px" viewBox="0 0 680 800" version="1.1" xmlns="http://www.w3.org/2000/svg" xmlns:xlink="http://www.w3.org/1999/xlink">
    <!-- Generator: Sketch 49.3 (51167) - http://www.bohemiancoding.com/sketch -->
    <title>White_Icon_Large</title>
    <desc>Created with Sketch.</desc>
    <defs></defs>
    <g id="Page-1" stroke="none" stroke-width="1" fill="none" fill-rule="evenodd" opacity="0.1">
        <g id="Elitelyfe-|-Home-Page" transform="translate(0.000000, -5100.000000)" fill="#FFFFFF" fill-rule="nonzero">
            <g id="Contact-Us-" transform="translate(-665.000000, 5100.000000)">
                <g id="White_Icon_Large">
                    <path d="M599.114262,622.711124 L671.792401,516.977542 L744.501193,622.86414 L922.135025,364.176449 L671.792401,0 L421.940224,364.176449 L599.114262,622.711124 Z M632.188792,364.176449 L672.037625,306.397866 L711.457315,364.176449 L671.792401,422.016238 L632.188792,364.176449 Z M856.8749,363.901021 L744.47054,527.841629 L704.621708,468.90013 L777.115929,364.176449 L671.792401,211.161134 L566.530178,364.176449 L638.993747,469.389779 L599.144915,527.290774 L486.924473,364.176449 L671.792401,95.6651747 L856.8749,363.901021 Z M981.335479,384.927923 L778.954143,681.206566 L998.608206,681.206566 L1159.68785,444.719095 L1230.00161,444.719095 L1029.02655,739.61297 L750.278359,739.61297 L672.719228,625.754331 L594.793242,739.61297 L316.595334,739.61297 L115.28399,444.749868 L185.108608,444.749868 L346.188254,681.237338 L565.934031,681.052703 L363.797265,384.927923 L0,384.927923 L281.255028,799.465687 L628.299276,799.465687 L672.719228,734.53549 L716.833467,799.465687 L1063.51086,799.465687 L1345.13274,384.927923 L981.335479,384.927923 Z M964.79646,621.384621 L895.522124,621.384621 L1015.85036,444.749868 L1085.27755,444.749868 L964.79646,621.384621 Z M329.374095,444.749868 L449.702333,621.384621 L379.938858,621.384621 L259.641191,444.749868 L329.374095,444.749868 Z" id="Shape"></path>
                </g>
            </g>
        </g>
    </g>
</svg>