<?xml version="1.0" encoding="UTF-8"?>
<svg width="81px" height="56px" viewBox="0 0 81 56" version="1.1" xmlns="http://www.w3.org/2000/svg" xmlns:xlink="http://www.w3.org/1999/xlink">
    <!-- Generator: Sketch 49.3 (51167) - http://www.bohemiancoding.com/sketch -->
    <title>White_Logo_Tagline_smallscale Copy</title>
    <desc>Created with Sketch.</desc>
    <defs></defs>
    <g id="Page-1" stroke="none" stroke-width="1" fill="none" fill-rule="evenodd">
        <g id="Mobile-|-Expanded" transform="translate(-118.000000, -5595.000000)" fill="#FFFFFF" fill-rule="nonzero">
            <g id="Footer-Copy" transform="translate(-1.000000, 5555.000000)">
                <g id="White_Logo_Tagline_smallscale-Copy" transform="translate(119.000000, 40.000000)">
                    <path d="M59.7409714,24 L47.9242286,40.8978199 L60.3380571,40.8978199 L70.2478286,26.6934597 L75.6817714,26.6934597 L62.6523429,45.31109 L45.0637714,45.31109 L40.5324,38.8185782 L35.9825143,45.31109 L18.3939429,45.31109 L5.346,26.6934597 L10.7568,26.6934597 L20.6665714,40.8978199 L33.0665143,40.8978199 L21.2682857,24 L0,24 L16.7415429,48 L37.5330857,48 L40.5092571,43.7550711 L43.4669143,48 L64.2399429,48 L81,24 L59.7409714,24 Z M58.7226857,38.20891 L53.3442857,38.20891 L61.3748571,26.6934597 L66.7578857,26.6934597 L58.7226857,38.20891 Z M19.6390286,26.6934597 L27.6696,38.20891 L22.2588,38.20891 L14.2282286,26.6934597 L19.6390286,26.6934597 Z" id="Shape"></path>
                    <polygon id="Shape" points="20.5323077 56 59.4676923 56 61 53 19 53"></polygon>
                    <path d="M39.9840207,0 L25,21.6548986 L35.5828641,36.9728805 L39.9840207,30.6450037 L44.3851773,37 L55,21.6548986 L39.9840207,0 Z M42.5224471,21.6503787 L39.9840207,25.3115075 L37.4410288,21.636819 L39.9840207,17.9711703 L42.5224471,21.6503787 Z M41.4175925,27.9330564 L45.8050525,21.6594185 L39.9840207,13.2659419 L34.1629889,21.6594185 L38.5504489,27.9872954 L35.5919951,32.2540924 L28.2460813,21.6458588 L39.9840207,4.74138774 L51.7265256,21.636819 L44.3669152,32.272172 L41.4175925,27.9330564 Z" id="Shape"></path>
                </g>
            </g>
        </g>
    </g>
</svg>