<?xml version="1.0" encoding="UTF-8"?>
<svg width="209px" height="81px" viewBox="0 0 209 81" version="1.1" xmlns="http://www.w3.org/2000/svg" xmlns:xlink="http://www.w3.org/1999/xlink">
    <!-- Generator: Sketch 49.3 (51167) - http://www.bohemiancoding.com/sketch -->
    <title>White_Logo_Tagline_smallscale</title>
    <desc>Created with Sketch.</desc>
    <defs></defs>
    <g id="Page-1" stroke="none" stroke-width="1" fill="none" fill-rule="evenodd">
        <g id="Loading-Screen" transform="translate(-57.000000, -203.000000)" fill="#FFFFFF" fill-rule="nonzero">
            <g id="Drawer-Menu-Copy" transform="translate(1.000000, 0.000000)">
                <g id="White_Logo_Tagline_smallscale" transform="translate(56.000000, 203.000000)">
                    <path d="M13.8648649,62.5898618 L13.8648649,67.8648649 L0,67.8648649 L0,67.4813551 L2.25158932,67.4813551 L2.25158932,51.4645909 L0,51.4645909 L0,51.0810811 L13.2104967,51.0810811 L13.2104967,54.7732346 L12.9184937,54.7732346 C12.8235048,53.4065451 12.0741477,51.4645909 8.32384427,51.4645909 L5.05552165,51.4645909 L5.05552165,58.9953289 L7.38802746,58.9953289 C9.08023756,58.9953289 9.51648299,57.2521025 9.75571435,55.5088761 L10.0477173,55.5088761 L10.0477173,63.0117226 L9.75571435,63.0117226 C9.51648299,61.2684962 9.10486432,59.4869188 7.38802746,59.4869188 L5.05552165,59.4869188 L5.05552165,67.5057602 L8.97469431,67.5057602 C12.7249978,67.5057602 13.477873,65.0129465 13.5728619,62.6247263 L13.8648649,62.5898618 Z" id="Shape"></path>
                    <path d="M39.4054054,62.5898618 L39.4054054,67.8648649 L25.5405405,67.8648649 L25.5405405,67.4813551 L27.7961362,67.4813551 L27.7961362,51.4645909 L25.5405405,51.4645909 L25.5405405,51.0810811 L32.8606535,51.0810811 L32.8606535,51.4645909 L30.6085821,51.4645909 L30.6085821,67.4813551 L34.7532393,67.4813551 C38.2776076,67.4813551 39.0177249,64.9885413 39.1128828,62.6003211 L39.4054054,62.5898618 Z" id="Shape"></path>
                    <polygon id="Shape" points="58.3783784 51.0810811 58.3783784 51.4645909 56.1333264 51.4645909 56.1333264 67.4813551 58.3783784 67.4813551 58.3783784 67.8648649 51.0810811 67.8648649 51.0810811 67.4813551 53.3296464 67.4813551 53.3296464 51.4645909 51.0810811 51.4645909 51.0810811 51.0810811"></polygon>
                    <path d="M83.1859269,54.7732346 L82.9184165,54.7732346 C82.5595612,52.9289011 81.907097,51.4645909 78.6545628,51.4645909 L77.5551606,51.4645909 L77.5551606,67.4813551 L79.6397838,67.4813551 L79.6397838,67.8648649 L72.8672051,67.8648649 L72.8672051,67.4813551 L74.9518283,67.4813551 L74.9518283,51.4645909 L73.8524261,51.4645909 C70.5901049,51.4645909 69.9376407,52.9289011 69.5918347,54.7732346 L69.3243243,54.7732346 L69.3243243,51.0810811 L83.1891892,51.0810811 L83.1859269,54.7732346 Z" id="Shape"></path>
                    <path d="M110.189189,62.5898618 L110.189189,67.8648649 L96.3243243,67.8648649 L96.3243243,67.4813551 L98.5759136,67.4813551 L98.5759136,51.4645909 L96.3243243,51.4645909 L96.3243243,51.0810811 L109.534821,51.0810811 L109.534821,54.7732346 L109.246336,54.7732346 C109.147829,53.4065451 108.398472,51.4645909 104.648169,51.4645909 L101.383364,51.4645909 L101.383364,58.9953289 L103.705316,58.9953289 C105.397526,58.9953289 105.816181,57.2521025 106.076521,55.5088761 L106.368524,55.5088761 L106.368524,63.0117226 L106.076521,63.0117226 C105.833771,61.2684962 105.422152,59.4869188 103.705316,59.4869188 L101.383364,59.4869188 L101.383364,67.5057602 L105.302537,67.5057602 C109.05284,67.5057602 109.802197,65.0129465 109.900704,62.6247263 L110.189189,62.5898618 Z" id="Shape"></path>
                    <path d="M135.72973,62.5898618 L135.72973,67.8648649 L121.864865,67.8648649 L121.864865,67.4813551 L124.116936,67.4813551 L124.116936,51.4645909 L121.864865,51.4645909 L121.864865,51.0810811 L129.184978,51.0810811 L129.184978,51.4645909 L126.929382,51.4645909 L126.929382,67.4813551 L131.074039,67.4813551 C134.598408,67.4813551 135.338525,64.9885413 135.437207,62.6003211 L135.72973,62.5898618 Z" id="Shape"></path>
                    <polygon id="Shape" points="158.351351 51.0810811 158.351351 51.4645909 157.0773 51.4645909 153.200998 59.5915124 153.200998 67.4813551 155.236296 67.4813551 155.236296 67.8648649 148.623969 67.8648649 148.623969 67.4813551 150.662451 67.4813551 150.662451 59.9052931 146.203271 51.4645909 144.486486 51.4645909 144.486486 51.0810811 150.617859 51.0810811 150.617859 51.4645909 148.91063 51.4645909 152.917522 59.1626787 156.599531 51.4645909 154.561048 51.4645909 154.561048 51.0810811"></polygon>
                    <path d="M183.162162,54.7732346 L182.885662,54.7732346 C182.791248,53.5738948 182.073022,51.4645909 178.478523,51.4645909 L175.602249,51.4645909 L175.602249,59.4834323 L177.807505,59.4834323 C179.429413,59.4834323 179.830675,57.7402059 180.0802,55.9969795 L180.356699,55.9969795 L180.356699,63.499826 L180.0802,63.499826 C179.847535,61.7565996 179.453017,59.9785086 177.807505,59.9785086 L175.602249,59.9785086 L175.602249,67.4813551 L178.454919,67.4813551 L178.454919,67.8648649 L170.756757,67.8648649 L170.756757,67.4813551 L172.914805,67.4813551 L172.914805,51.4645909 L170.756757,51.4645909 L170.756757,51.0810811 L183.162162,51.0810811 L183.162162,54.7732346 Z" id="Shape"></path>
                    <path d="M208.702703,62.5898618 L208.702703,67.8648649 L194.837838,67.8648649 L194.837838,67.4813551 L197.08648,67.4813551 L197.08648,51.4645909 L194.837838,51.4645909 L194.837838,51.0810811 L208.044649,51.0810811 L208.044649,54.7732346 L207.752572,54.7732346 C207.657559,53.4065451 206.904493,51.4645909 203.153238,51.4645909 L199.887605,51.4645909 L199.887605,58.9953289 L202.210145,58.9953289 C203.906304,58.9953289 204.321546,57.2521025 204.581952,55.5088761 L204.877548,55.5088761 L204.877548,63.0117226 L204.585471,63.0117226 C204.34266,61.2684962 203.934456,59.4869188 202.213664,59.4869188 L199.891124,59.4869188 L199.891124,67.5057602 L203.821848,67.5057602 C207.573103,67.5057602 208.322651,65.0129465 208.421183,62.6247263 L208.702703,62.5898618 Z" id="Shape"></path>
                    <polygon id="Shape" points="71.5135135 81 71.5135135 75.8918919 72.130915 75.8918919 72.130915 80.4335431 74.4324324 80.4335431 74.4324324 81"></polygon>
                    <polygon id="Shape" points="79.5405405 81 79.5405405 75.8918919 80.2702703 75.8918919 80.2702703 81"></polygon>
                    <polygon id="Shape" points="87.5116628 81 85.3783784 75.8918919 86.1333394 75.8918919 87.9272377 80.3035913 89.7315254 75.8918919 90.4864865 75.8918919 88.3462758 81"></polygon>
                    <polygon id="Shape" points="94.1351351 81 94.1351351 75.8918919 97.7837838 75.8918919 97.7837838 76.4583488 94.8285599 76.4583488 94.8285599 78.1044058 97.7329568 78.1044058 97.7329568 78.6708626 94.8285599 78.6708626 94.8285599 80.4335431 97.7837838 80.4335431 97.7837838 81"></polygon>
                    <polygon id="Shape" points="109.459459 81 109.459459 75.8918919 110.076178 75.8918919 110.076178 80.4335431 112.378378 80.4335431 112.378378 81"></polygon>
                    <polygon id="Shape" points="117.192089 80.9833395 117.192089 78.8407997 115.297297 75.8918919 115.995708 75.8918919 117.486486 78.2676786 118.977265 75.8918919 119.675676 75.8918919 117.796543 78.8407997 117.796543 81"></polygon>
                    <polygon id="Shape" points="124.783784 80.9966701 124.783784 75.8918919 128.432432 75.8918919 128.432432 76.4579795 125.466317 76.4579795 125.466317 78.1029635 128.370714 78.1029635 128.370714 78.6690511 125.466317 78.6690511 125.466317 81"></polygon>
                    <polygon id="Shape" points="132.810811 81 132.810811 75.8918919 136.459459 75.8918919 136.459459 76.4583488 133.504236 76.4583488 133.504236 78.1044058 136.408633 78.1044058 136.408633 78.6708626 133.504236 78.6708626 133.504236 80.4335431 136.459459 80.4335431 136.459459 81"></polygon>
                    <path d="M118.756925,17.5135135 L110.133897,29.8443551 L119.192636,29.8443551 L126.424091,19.4790111 L130.389401,19.4790111 L120.881439,33.0648495 L108.046536,33.0648495 L104.739859,28.3270706 L101.419673,33.0648495 L88.5847691,33.0648495 L79.0632973,19.4790111 L83.0117189,19.4790111 L90.2431737,29.8443551 L99.2917807,29.8443551 L90.6822625,17.5135135 L75.1621622,17.5135135 L87.3789637,35.027027 L102.551171,35.027027 L104.722971,31.9293762 L106.881262,35.027027 L122.039958,35.027027 L134.27027,17.5135135 L118.756925,17.5135135 Z M118.013852,27.8821775 L114.089073,27.8821775 L119.94922,19.4790111 L123.877376,19.4790111 L118.013852,27.8821775 Z M89.4933452,19.4790111 L95.3534919,27.8821775 L91.4050703,27.8821775 L85.5449236,19.4790111 L89.4933452,19.4790111 Z" id="Shape"></path>
                    <polygon id="Shape" points="90.1451975 40.1351351 118.557505 40.1351351 119.675676 38.6756757 89.027027 38.6756757"></polygon>
                    <path d="M104.339691,0 L93.4054054,15.8022233 L101.128036,26.9802101 L104.339691,22.3625702 L107.551346,27 L115.297297,15.8022233 L104.339691,0 Z M106.192056,15.798925 L104.339691,18.4705595 L102.483994,15.7890301 L104.339691,13.1140972 L106.192056,15.798925 Z M105.385811,20.3835817 L108.587471,15.8055216 L104.339691,9.68055216 L100.091911,15.8055216 L103.293571,20.4231615 L101.134699,23.5367701 L95.7741674,15.7956267 L104.339691,3.45993159 L112.908546,15.7890301 L107.538019,23.5499634 L105.385811,20.3835817 Z" id="Shape"></path>
                </g>
            </g>
        </g>
    </g>
</svg>