<?xml version="1.0" encoding="UTF-8"?>
<svg width="38px" height="38px" viewBox="0 0 38 38" version="1.1" xmlns="http://www.w3.org/2000/svg" xmlns:xlink="http://www.w3.org/1999/xlink">
    <!-- Generator: Sketch 49.3 (51167) - http://www.bohemiancoding.com/sketch -->
    <title>Custom Icon / Bath</title>
    <desc>Created with Sketch.</desc>
    <defs></defs>
    <g id="Custom-Icon-/-Bath" stroke="none" stroke-width="1" fill="none" fill-rule="evenodd">
        <g id="Bath" transform="translate(6.000000, 7.000000)" fill="#333333" fill-rule="nonzero">
            <path d="M0,10.4064039 L0,16.8719212 C0.00230813202,19.5581491 2.01303594,21.8065013 4.65328467,22.0751232 L4.65328467,22.229064 C4.65328467,23.7594097 5.87878262,25 7.39051095,25 L17.6094891,25 C19.1212174,25 20.3467153,23.7594097 20.3467153,22.229064 L20.3467153,22.0751232 C22.9869641,21.8065013 24.9976919,19.5581491 25,16.8719212 L25,10.4064039 L21.6849148,10.4064039 L21.6849148,4.64901478 C21.6849148,2.08143481 19.6288016,0 17.0924574,0 C14.5561132,0 12.5,2.08143481 12.5,4.64901478 L12.5,5.84975369 L14.3248175,5.84975369 L14.3248175,4.64901478 C14.3248175,3.10166526 15.5639321,1.84729064 17.0924574,1.84729064 C18.6209827,1.84729064 19.8600973,3.10166526 19.8600973,4.64901478 L19.8600973,10.4064039 L0,10.4064039 Z M17.6094891,23.1527094 L7.39051095,23.1527094 C6.88660151,23.1527094 6.47810219,22.7391793 6.47810219,22.229064 L6.47810219,22.1059113 L18.5218978,22.1059113 L18.5218978,22.229064 C18.5218978,22.7391793 18.1133985,23.1527094 17.6094891,23.1527094 Z M23.1751825,16.8719212 C23.1751825,18.7423437 21.6773517,20.2586207 19.8296837,20.2586207 L5.1703163,20.2586207 C3.32264834,20.2586207 1.82481752,18.7423437 1.82481752,16.8719212 L1.82481752,12.2536946 L23.1751825,12.2536946 L23.1751825,16.8719212 Z" id="Shape"></path>
        </g>
    </g>
</svg>