<?xml version="1.0" encoding="UTF-8"?>
<svg width="38px" height="38px" viewBox="0 0 38 38" version="1.1" xmlns="http://www.w3.org/2000/svg" xmlns:xlink="http://www.w3.org/1999/xlink">
    <!-- Generator: Sketch 49.3 (51167) - http://www.bohemiancoding.com/sketch -->
    <title>Custom Icon / Bed</title>
    <desc>Created with Sketch.</desc>
    <defs></defs>
    <g id="Custom-Icon-/-Bed" stroke="none" stroke-width="1" fill="none" fill-rule="evenodd">
        <g id="bed" transform="translate(4.000000, 13.000000)" fill="#333333" fill-rule="nonzero">
            <path d="M29.1818363,7.32359494 L12.1901592,7.32359494 C11.8054465,5.24139636 10.0352886,3.66097215 7.9087822,3.66097215 L4.36407219,3.66097215 C3.32698586,3.66097215 2.38577799,4.05215807 1.63632732,4.67855079 L1.63632732,0.845093671 C1.63632732,0.378393987 1.26999135,0 0.818163659,0 C0.366335969,0 0,0.378393987 0,0.845093671 L0,8.16868861 L0,15.4931089 L0,19.1549063 C0,19.6220187 0.366335969,20 0.818163659,20 C1.26999135,20 1.63632732,19.6220187 1.63632732,19.1549063 L1.63632732,16.3382025 L28.3636727,16.3382025 L28.3636727,19.1549063 C28.3636727,19.6220187 28.7296091,20 29.1818363,20 C29.6340635,20 30,19.6220187 30,19.1549063 L30,15.4931089 L30,8.16868861 C30,7.70198892 29.6340635,7.32359494 29.1818363,7.32359494 Z M4.36407219,5.35115949 L7.9087822,5.35115949 C9.12604036,5.35115949 10.1475464,6.18428647 10.4975031,7.32359494 L1.77575075,7.32359494 C2.12570741,6.18428655 3.14681403,5.35115949 4.36407219,5.35115949 Z M1.63632732,9.01378228 L28.3636727,9.01378228 L28.3636727,14.6480152 L1.63632732,14.6480152 L1.63632732,9.01378228 Z" id="Shape"></path>
        </g>
    </g>
</svg>