<?xml version="1.0" encoding="UTF-8"?>
<svg width="38px" height="38px" viewBox="0 0 38 38" version="1.1" xmlns="http://www.w3.org/2000/svg" xmlns:xlink="http://www.w3.org/1999/xlink">
    <!-- Generator: Sketch 49.3 (51167) - http://www.bohemiancoding.com/sketch -->
    <title>Custom Icon / Guests</title>
    <desc>Created with Sketch.</desc>
    <defs></defs>
    <g id="Custom-Icon-/-Guests" stroke="none" stroke-width="1" fill="none" fill-rule="evenodd">
        <g id="Guests" transform="translate(7.000000, 7.000000)" fill="#333333" fill-rule="nonzero" stroke="#333333" stroke-width="0.5">
            <path d="M12.1706028,12.8301266 C8.63285543,12.8301266 5.75456725,9.95248656 5.75456725,6.4150633 C5.75456725,2.87764004 8.63285543,0 12.1706028,0 C15.7083501,0 18.5859901,2.87764004 18.5859901,6.4150633 C18.5859901,9.95248656 15.7083501,12.8301266 12.1706028,12.8301266 Z M12.1706028,1.32734388 C9.36457969,1.32734388 7.08191112,3.60968831 7.08191112,6.4150633 C7.08191112,9.2204383 9.36457969,11.5027827 12.1706028,11.5027827 C14.9759778,11.5027827 17.2586463,9.2204383 17.2586463,6.4150633 C17.2586463,3.60968831 14.9759778,1.32734388 12.1706028,1.32734388 Z M18.8419964,24.3121696 C19.1965165,24.2194889 19.4090989,23.8565433 19.3164182,23.5020232 L18.5646023,20.6269757 C18.4712734,20.2724556 18.108976,20.0637619 17.7544559,20.1525539 C17.3999358,20.2452346 17.1873534,20.6081802 17.2800342,20.9627003 L18.03185,23.8377478 C18.1102722,24.1358817 18.3792408,24.3335574 18.673486,24.3335574 C18.729224,24.3335575 18.7856102,24.3264282 18.8419964,24.3121696 Z M6.30579086,23.838396 L7.05728265,20.9627003 C7.14996338,20.6081803 6.93770503,20.2452347 6.58318496,20.1525539 C6.2254243,20.0611694 5.86571929,20.2731037 5.77336264,20.6269757 L5.02187084,23.5026714 C4.92919012,23.8571915 5.14144846,24.2201371 5.49596854,24.3128178 C5.5523547,24.3270764 5.60874094,24.3342057 5.66415495,24.3342057 C5.95904822,24.3342056 6.2280168,24.1365299 6.30579086,23.838396 Z M23.8836995,24.2998554 C24.2310903,24.1844906 24.4190443,23.8085826 24.3030313,23.4605438 L21.8823139,16.1983914 C21.5427005,15.1789031 20.4344202,14.3804228 19.359842,14.3804228 L4.97812298,14.3804228 C3.90322073,14.3804228 2.7952645,15.1789031 2.45532708,16.1983914 L0.0342855047,23.4605437 C-0.0817274692,23.8085826 0.106226481,24.1844905 0.453941332,24.2998554 C0.802304258,24.4171645 1.17756408,24.2279144 1.29357706,23.8805236 L3.71461857,16.6183712 C3.87340726,16.1420051 4.47583216,15.7077666 4.97812291,15.7077666 L19.359842,15.7077666 C19.8621327,15.7077666 20.4642336,16.1420051 20.6236704,16.6183712 L23.0443878,23.8805236 C23.1370685,24.1585658 23.3956673,24.3342056 23.6737096,24.3342056 C23.7430581,24.3342056 23.8137029,24.3231876 23.8836995,24.2998554 Z" id="Shape"></path>
        </g>
    </g>
</svg>