<?xml version="1.0" encoding="UTF-8"?>
<svg width="260px" height="30px" viewBox="0 0 260 30" version="1.1" xmlns="http://www.w3.org/2000/svg" xmlns:xlink="http://www.w3.org/1999/xlink">
    <!-- Generator: Sketch 49.3 (51167) - http://www.bohemiancoding.com/sketch -->
    <title>Elitelyfe | Wordmark</title>
    <desc>Created with Sketch.</desc>
    <defs></defs>
    <g id="Elitelyfe-|-Wordmark" stroke="none" stroke-width="1" fill="none" fill-rule="evenodd">
        <g id="White_Wordmark_Trademark" transform="translate(10.000000, 6.000000)" fill="#FFFFFF" fill-rule="nonzero">
            <path d="M15.2814286,12.8773469 L15.2814286,18.7440816 L0,18.7440816 L0,18.317551 L2.48163265,18.317551 L2.48163265,0.504081633 L0,0.504081633 L0,0.0775510204 L14.5602041,0.0775510204 L14.5602041,4.18387755 L14.2383673,4.18387755 C14.1336735,2.66387755 13.3077551,0.504081633 9.17428571,0.504081633 L5.57204082,0.504081633 L5.57204082,8.87959184 L8.14285714,8.87959184 C10.0079592,8.87959184 10.4887755,6.94081633 10.752449,5.00204082 L11.0742857,5.00204082 L11.0742857,13.3310204 L10.752449,13.3310204 C10.4887755,11.3922449 10.035102,9.41081633 8.14285714,9.41081633 L5.57204082,9.41081633 L5.57204082,18.3291837 L9.89163265,18.3291837 C14.025102,18.3291837 14.854898,15.5567347 14.9595918,12.9006122 L15.2814286,12.8773469 Z" id="Shape"></path>
            <path d="M44.3979592,12.8773469 L44.3979592,18.7440816 L29.1436735,18.7440816 L29.1436735,18.317551 L31.6253061,18.317551 L31.6253061,0.504081633 L29.1436735,0.504081633 L29.1436735,0.0775510204 L37.1973469,0.0775510204 L37.1973469,0.504081633 L34.7195918,0.504081633 L34.7195918,18.317551 L39.2795918,18.317551 C43.1571429,18.317551 43.9714286,15.545102 44.0761224,12.8889796 L44.3979592,12.8773469 Z" id="Shape"></path>
            <polygon id="Shape" points="66.3953061 0.0775510204 66.3953061 0.504081633 63.917551 0.504081633 63.917551 18.317551 66.3953061 18.317551 66.3953061 18.7440816 58.3416327 18.7440816 58.3416327 18.317551 60.8232653 18.317551 60.8232653 0.504081633 58.3416327 0.504081633 58.3416327 0.0775510204"></polygon>
            <path d="M96.7410204,4.18387755 L96.4230612,4.18387755 C95.9965306,2.13265306 95.2210204,0.504081633 91.355102,0.504081633 L90.0483673,0.504081633 L90.0483673,18.317551 L92.5261224,18.317551 L92.5261224,18.7440816 L84.4763265,18.7440816 L84.4763265,18.317551 L86.9540816,18.317551 L86.9540816,0.504081633 L85.6473469,0.504081633 C81.7697959,0.504081633 80.9942857,2.13265306 80.5832653,4.18387755 L80.2653061,4.18387755 L80.2653061,0.0775510204 L96.744898,0.0775510204 L96.7410204,4.18387755 Z" id="Shape"></path>
            <path d="M126.152245,12.8773469 L126.152245,18.7440816 L110.870816,18.7440816 L110.870816,18.317551 L113.352449,18.317551 L113.352449,0.504081633 L110.870816,0.504081633 L110.870816,0.0775510204 L125.43102,0.0775510204 L125.43102,4.18387755 L125.113061,4.18387755 C125.00449,2.66387755 124.178571,0.504081633 120.045102,0.504081633 L116.446735,0.504081633 L116.446735,8.87959184 L119.005918,8.87959184 C120.87102,8.87959184 121.332449,6.94081633 121.619388,5.00204082 L121.941224,5.00204082 L121.941224,13.3310204 L121.619388,13.3310204 C121.351837,11.3922449 120.898163,9.41081633 119.005918,9.41081633 L116.446735,9.41081633 L116.446735,18.3291837 L120.766327,18.3291837 C124.899796,18.3291837 125.725714,15.5567347 125.834286,12.9006122 L126.152245,12.8773469 Z" id="Shape"></path>
            <path d="M155.272653,12.8773469 L155.272653,18.7440816 L140.018367,18.7440816 L140.018367,18.317551 L142.496122,18.317551 L142.496122,0.504081633 L140.018367,0.504081633 L140.018367,0.0775510204 L148.072041,0.0775510204 L148.072041,0.504081633 L145.590408,0.504081633 L145.590408,18.317551 L150.150408,18.317551 C154.027959,18.317551 154.842245,15.545102 154.950816,12.8889796 L155.272653,12.8773469 Z" id="Shape"></path>
            <polygon id="Shape" points="183.536122 0.0775510204 183.536122 0.504081633 181.985102 0.504081633 177.27 9.54653061 177.27 18.317551 179.747755 18.317551 179.747755 18.7440816 171.694082 18.7440816 171.694082 18.317551 174.175714 18.317551 174.175714 9.89163265 168.747143 0.504081633 166.657143 0.504081633 166.657143 0.0775510204 174.121429 0.0775510204 174.121429 0.504081633 172.043061 0.504081633 176.92102 9.06571429 181.403469 0.504081633 178.921837 0.504081633 178.921837 0.0775510204"></polygon>
            <path d="M211.132653,4.18387755 L210.814694,4.18387755 C210.706122,2.85 209.880204,0.504081633 205.746735,0.504081633 L202.439184,0.504081633 L202.439184,9.42244898 L204.975102,9.42244898 C206.840204,9.42244898 207.301633,7.48367347 207.588571,5.54489796 L207.906531,5.54489796 L207.906531,13.8932653 L207.588571,13.8932653 C207.32102,11.9544898 206.867347,9.97306122 204.975102,9.97306122 L202.439184,9.97306122 L202.439184,18.317551 L205.719592,18.317551 L205.719592,18.7440816 L196.867143,18.7440816 L196.867143,18.317551 L199.348776,18.317551 L199.348776,0.504081633 L196.867143,0.504081633 L196.867143,0.0775510204 L211.132653,0.0775510204 L211.132653,4.18387755 Z" id="Shape"></path>
            <path d="M240.357755,12.8773469 L240.357755,18.7440816 L225.080204,18.7440816 L225.080204,18.317551 L227.557959,18.317551 L227.557959,0.504081633 L225.080204,0.504081633 L225.080204,0.0775510204 L239.632653,0.0775510204 L239.632653,4.18387755 L239.310816,4.18387755 C239.206122,2.66387755 238.376327,0.504081633 234.242857,0.504081633 L230.64449,0.504081633 L230.64449,8.87959184 L233.203673,8.87959184 C235.072653,8.87959184 235.530204,6.94081633 235.817143,5.00204082 L236.142857,5.00204082 L236.142857,13.3310204 L235.82102,13.3310204 C235.553469,11.3922449 235.103673,9.41081633 233.207551,9.41081633 L230.648367,9.41081633 L230.648367,18.3291837 L234.979592,18.3291837 C239.113061,18.3291837 239.93898,15.5567347 240.047551,12.9006122 L240.357755,12.8773469 Z" id="Shape"></path>
        </g>
    </g>
</svg>