<?xml version="1.0" encoding="UTF-8"?>
<svg width="16px" height="16px" viewBox="0 0 16 16" version="1.1" xmlns="http://www.w3.org/2000/svg" xmlns:xlink="http://www.w3.org/1999/xlink">
    <!-- Generator: Sketch 49.3 (51167) - http://www.bohemiancoding.com/sketch -->
    <title>2. Icon / 2. Icon Box / 16 Size  / ic_send contact Copy</title>
    <desc>Created with Sketch.</desc>
    <defs>
        <path d="M1,8 C1,9.43221324 1.43012344,10.7639658 2.16824199,11.8731292 C3.56405473,11.2866829 5.50530585,11 8,11 C10.4946942,11 12.4359453,11.2866829 13.831758,11.8731292 C14.5698766,10.7639658 15,9.43221324 15,8 L1,8 Z M1.07088886,7 L14.9291111,7 C14.7787607,5.94888364 14.3948977,4.97309527 13.831758,4.12687076 C12.4359453,4.71331712 10.4946942,5 8,5 C5.50530585,5 3.56405473,4.71331712 2.16824199,4.12687076 C1.60510227,4.97309527 1.22123927,5.94888364 1.07088886,7 Z M2.80811634,12.6952218 C4.08899742,14.1107186 5.94064731,15 8,15 C10.0593527,15 11.9110026,14.1107186 13.1918837,12.6952218 C11.9539278,12.2353485 10.2210921,12 8,12 C5.77890791,12 4.0460722,12.2353485 2.80811634,12.6952218 Z M2.80811634,3.30477819 C4.0460722,3.76465153 5.77890791,4 8,4 C10.2210921,4 11.9539278,3.76465153 13.1918837,3.30477819 C11.9110026,1.8892814 10.0593527,1 8,1 C5.94064731,1 4.08899742,1.8892814 2.80811634,3.30477819 Z M8,16 C3.581722,16 0,12.418278 0,8 C0,3.581722 3.581722,0 8,0 C12.418278,0 16,3.581722 16,8 C16,12.418278 12.418278,16 8,16 Z M8,16 C6.19433753,16 5,12.4169874 5,8 C5,3.5830126 6.19433753,0 8,0 C9.80566247,0 11,3.5830126 11,8 C11,12.4169874 9.80566247,16 8,16 Z M8,15 C8.95576128,15 10,11.8672839 10,8 C10,4.13271615 8.95576128,1 8,1 C7.04423872,1 6,4.13271615 6,8 C6,11.8672839 7.04423872,15 8,15 Z" id="path-1"></path>
    </defs>
    <g id="Page-1" stroke="none" stroke-width="1" fill="none" fill-rule="evenodd">
        <g id="Elitelyfe-|-Home-Page" transform="translate(-875.000000, -6187.000000)">
            <g id="Footer" transform="translate(0.000000, 5900.000000)">
                <g id="Widgets" transform="translate(875.000000, 99.000000)">
                    <g id="Group-6">
                        <g id="2.-Icon-/-2.-Icon-Box-/-16-Size--/-ic_internet" transform="translate(0.000000, 188.000000)">
                            <mask id="mask-2" fill="white">
                                <use xlink:href="#path-1"></use>
                            </mask>
                            <g id="ic_internet" fill-rule="nonzero"></g>
                            <g id="3.-Color-/-3.-Light-/-3.-Light-80%" mask="url(#mask-2)" fill="#FFFFFF" fill-opacity="0.8" fill-rule="evenodd">
                                <rect id="Placeholder" x="0" y="0" width="16" height="16"></rect>
                            </g>
                        </g>
                    </g>
                </g>
            </g>
        </g>
    </g>
</svg>