<?xml version="1.0" encoding="UTF-8"?>
<svg width="35px" height="78px" viewBox="0 0 35 78" version="1.1" xmlns="http://www.w3.org/2000/svg" xmlns:xlink="http://www.w3.org/1999/xlink">
    <!-- Generator: Sketch 49.3 (51167) - http://www.bohemiancoding.com/sketch -->
    <title>4. Arrow /  3. Angle / 1. Super / Right</title>
    <desc>Created with Sketch.</desc>
    <defs>
        <path d="M34.440053,39.6516966 L2.15793395,77.2233732 C1.80587353,77.6331202 1.18830661,77.6798844 0.778559643,77.3278239 C0.76725422,77.3181101 0.756172304,77.3081392 0.745322578,77.297919 L0.69301946,77.2486503 C0.304893767,76.8830426 0.271895716,76.2772168 0.61801533,75.8716163 L32.0824477,39 L0.621505551,2.14293062 C0.278197346,1.74073877 0.307350444,1.14078939 0.688036217,0.773778292 L0.750537503,0.713522125 C1.13651566,0.341408757 1.75107026,0.352648386 2.12318362,0.738626538 C2.13605173,0.751974105 2.14853482,0.765687579 2.16061752,0.779750083 L34.440053,38.3483034 C34.76208,38.7230958 34.76208,39.2769042 34.440053,39.6516966 Z" id="path-1"></path>
    </defs>
    <g id="Page-1" stroke="none" stroke-width="1" fill="none" fill-rule="evenodd">
        <g id="Elitelyfe-|-Home-Page" transform="translate(-1835.000000, -2925.000000)">
            <g id="Testimonial-Carousel" transform="translate(0.000000, 2784.000000)">
                <g id="Group-4">
                    <g id="Testimonials-#29">
                        <g id="Arrows" transform="translate(30.000000, 140.000000)">
                            <g id="4.-Arrow-/--3.-Angle-/-1.-Super-/-Right" transform="translate(1780.000000, 0.000000)">
                                <g id="icon" transform="translate(25.000000, 1.000000)">
                                    <mask id="mask-2" fill="white">
                                        <use xlink:href="#path-1"></use>
                                    </mask>
                                    <g id="ic_arrow-left"></g>
                                    <g id="3.-Color-/-4.-Dark-/-5.-Dark-40%" mask="url(#mask-2)" fill="#000000" fill-opacity="0.4">
                                        <g transform="translate(-25.000000, -1.000000)" id="Placeholder">
                                            <rect x="0" y="0" width="80" height="80"></rect>
                                        </g>
                                    </g>
                                </g>
                            </g>
                        </g>
                    </g>
                </g>
            </g>
        </g>
    </g>
</svg>